<svg width="237" height="108" viewBox="0 0 237 108" fill="none" xmlns="http://www.w3.org/2000/svg">
<g filter="url(#filter0_dd)">
<path fill-rule="evenodd" clip-rule="evenodd" d="M14.8719 32.3681C14 34.0794 14 36.3196 14 40.8V51.2C14 55.6804 14 57.9206 14.8719 59.6319C15.6389 61.1372 16.8628 62.3611 18.3681 63.1281C20.0794 64 22.3196 64 26.8 64H27.4085C29.4456 64 31.2223 66.2908 32.8742 68.4207C34.3093 70.2711 35.6502 72 36.9859 72C38.3194 72 39.6528 70.2769 41.082 68.4301C42.7323 66.2975 44.5103 64 46.5634 64H192.2C196.68 64 198.921 64 200.632 63.1281C202.137 62.3611 203.361 61.1372 204.128 59.6319C205 57.9206 205 55.6804 205 51.2V40.8C205 36.3196 205 34.0794 204.128 32.3681C203.361 30.8628 202.137 29.6389 200.632 28.8719C198.921 28 196.68 28 192.2 28H26.8C22.3196 28 20.0794 28 18.3681 28.8719C16.8628 29.6389 15.6389 30.8628 14.8719 32.3681Z" fill="#5A9EFF"/>
</g>
<defs>
<filter id="filter0_dd" x="-18" y="0" width="255" height="108" filterUnits="userSpaceOnUse" color-interpolation-filters="sRGB">
<feFlood flood-opacity="0" result="BackgroundImageFix"/>
<feColorMatrix in="SourceAlpha" type="matrix" values="0 0 0 0 0 0 0 0 0 0 0 0 0 0 0 0 0 0 127 0"/>
<feOffset dy="4"/>
<feGaussianBlur stdDeviation="16"/>
<feColorMatrix type="matrix" values="0 0 0 0 0 0 0 0 0 0 0 0 0 0 0 0 0 0 0.16 0"/>
<feBlend mode="normal" in2="BackgroundImageFix" result="effect1_dropShadow"/>
<feColorMatrix in="SourceAlpha" type="matrix" values="0 0 0 0 0 0 0 0 0 0 0 0 0 0 0 0 0 0 127 0"/>
<feOffset/>
<feGaussianBlur stdDeviation="2"/>
<feColorMatrix type="matrix" values="0 0 0 0 0 0 0 0 0 0 0 0 0 0 0 0 0 0 0.04 0"/>
<feBlend mode="normal" in2="effect1_dropShadow" result="effect2_dropShadow"/>
<feBlend mode="normal" in="SourceGraphic" in2="effect2_dropShadow" result="shape"/>
</filter>
</defs>
</svg>
