<svg width="357" height="52" viewBox="0 0 357 52" fill="none" xmlns="http://www.w3.org/2000/svg">
<path d="M282.673 36.6504C280.576 36.6504 278.747 36.2266 277.184 35.3789C275.62 34.5312 274.413 33.3281 273.561 31.7695C272.708 30.2109 272.282 28.3926 272.282 26.3145V25.5625C272.282 23.4935 272.727 21.6569 273.615 20.0527C274.504 18.4486 275.753 17.2022 277.361 16.3135C278.97 15.4248 280.809 14.9805 282.878 14.9805H282.987C284.92 14.9805 286.649 15.3792 288.176 16.1768C289.702 16.9743 290.896 18.0771 291.758 19.4854C292.619 20.8936 293.05 22.4909 293.05 24.2773V24.9609C293.05 26.1823 292.849 27.2624 292.448 28.2012C292.047 29.14 291.487 29.8714 290.767 30.3955C290.047 30.9196 289.217 31.1816 288.278 31.1816C287.431 31.1816 286.702 31.0039 286.091 30.6484C285.48 30.293 285.116 29.8281 284.997 29.2539H284.86C284.76 29.6094 284.56 29.9352 284.259 30.2314C283.958 30.5277 283.591 30.7601 283.158 30.9287C282.725 31.0973 282.272 31.1816 281.798 31.1816C281.05 31.1816 280.399 30.9994 279.843 30.6348C279.287 30.2702 278.858 29.7507 278.558 29.0762C278.257 28.4017 278.106 27.6042 278.106 26.6836V25.3164C278.106 24.4232 278.259 23.6439 278.564 22.9785C278.87 22.3131 279.307 21.8027 279.877 21.4473C280.447 21.0918 281.114 20.9141 281.88 20.9141C282.554 20.9141 283.147 21.0804 283.657 21.4131C284.168 21.7458 284.505 22.181 284.669 22.7188H284.778V22.3633C284.778 21.9987 284.879 21.7093 285.079 21.4951C285.28 21.2809 285.553 21.1738 285.899 21.1738C286.237 21.1738 286.506 21.2809 286.706 21.4951C286.907 21.7093 287.007 21.9987 287.007 22.3633V27.832C287.007 28.2969 287.148 28.6683 287.431 28.9463C287.713 29.2243 288.082 29.3633 288.538 29.3633C289.021 29.3633 289.445 29.1764 289.81 28.8027C290.174 28.429 290.454 27.8981 290.65 27.21C290.846 26.5218 290.944 25.7175 290.944 24.7969V24.3457C290.944 22.9147 290.605 21.6341 289.926 20.5039C289.247 19.3737 288.303 18.4896 287.096 17.8516C285.888 17.2135 284.519 16.8945 282.987 16.8945H282.878C281.219 16.8945 279.752 17.2591 278.476 17.9883C277.2 18.7175 276.208 19.7451 275.502 21.0713C274.796 22.3975 274.442 23.9219 274.442 25.6445V26.2324C274.442 27.946 274.784 29.4476 275.468 30.7373C276.151 32.027 277.12 33.0205 278.373 33.7178C279.626 34.415 281.087 34.7637 282.755 34.7637H282.864C283.484 34.7637 284.254 34.6953 285.175 34.5586C285.658 34.4948 285.972 34.4629 286.118 34.4629C286.382 34.4629 286.601 34.5426 286.774 34.7021C286.948 34.8617 287.034 35.0645 287.034 35.3105C287.034 35.5566 286.961 35.7663 286.815 35.9395C286.67 36.1126 286.46 36.2357 286.187 36.3086C285.302 36.5365 284.172 36.6504 282.796 36.6504H282.673ZM280.485 26.3691C280.485 27.2897 280.661 27.9893 281.012 28.4678C281.363 28.9463 281.88 29.1855 282.563 29.1855C283.238 29.1855 283.753 28.9554 284.108 28.4951C284.464 28.0348 284.642 27.3672 284.642 26.4922V25.3848C284.642 24.5827 284.452 23.9492 284.074 23.4844C283.696 23.0195 283.183 22.7871 282.536 22.7871C281.889 22.7871 281.385 23.0309 281.025 23.5186C280.665 24.0062 280.485 24.6875 280.485 25.5625V26.3691Z" fill="#99A2AD"/>
<path d="M332.148 14.0407C332.576 14.1092 332.98 14.2727 333.343 14.5633C333.938 15.0392 334.221 15.6391 334.44 16.5149C334.496 16.7391 334.593 17.0005 334.715 17.2542C334.993 17.3724 335.265 17.5038 335.53 17.6479C335.792 17.5832 336.043 17.4973 336.244 17.4039C337.656 16.7464 338.841 16.781 339.811 17.8274C339.893 17.9159 339.942 17.9746 340.049 18.1062L340.678 18.8834C340.847 19.0924 340.92 19.1876 341.026 19.3653C341.718 20.5167 341.448 21.5891 340.574 22.7511C340.429 22.9439 340.281 23.1963 340.157 23.4618C340.235 23.7444 340.3 24.0309 340.352 24.3206C340.575 24.499 340.811 24.6554 341.02 24.7621C341.825 25.1725 342.345 25.5835 342.675 26.2702C342.877 26.6894 342.945 27.1202 342.916 27.5522C342.9 27.7805 342.875 27.9078 342.809 28.1928L342.585 29.1672C342.519 29.4521 342.485 29.5773 342.399 29.7894C342.236 30.1906 341.986 30.5479 341.621 30.8364C341.024 31.3089 340.375 31.45 339.473 31.4663C339.244 31.4705 338.971 31.5054 338.7 31.5652C338.524 31.809 338.336 32.0443 338.137 32.2704C338.14 32.5446 338.168 32.814 338.214 33.0344C338.401 33.9176 338.41 34.581 338.084 35.2695C337.885 35.6898 337.593 36.0141 337.239 36.2631C337.051 36.3946 336.937 36.4555 336.674 36.5837L335.775 37.0221C335.512 37.1503 335.394 37.203 335.175 37.2696C334.761 37.3955 334.325 37.4258 333.872 37.3238C333.128 37.1569 332.611 36.7419 332.03 36.0506C331.877 35.8679 331.667 35.6691 331.439 35.49C331.293 35.4967 331.147 35.5 331 35.5C330.854 35.5 330.707 35.4967 330.561 35.49C330.333 35.6691 330.124 35.8679 329.97 36.0506C329.389 36.7419 328.872 37.1569 328.128 37.3238C327.675 37.4258 327.239 37.3955 326.825 37.2696C326.606 37.203 326.488 37.1503 326.225 37.0221L325.326 36.5837C325.247 36.5453 325.198 36.521 325.141 36.4912C323.829 35.8082 323.445 34.6441 323.786 33.0344C323.833 32.814 323.86 32.5446 323.863 32.2704C323.665 32.0443 323.477 31.809 323.3 31.5652C323.029 31.5054 322.756 31.4705 322.528 31.4663C321.625 31.45 320.977 31.3089 320.379 30.8364C320.014 30.5479 319.764 30.1906 319.601 29.7894C319.515 29.5773 319.481 29.4521 319.416 29.1672L319.191 28.1928C319.121 27.8911 319.095 27.7565 319.082 27.512C319.057 27.0537 319.145 26.5984 319.378 26.1664C319.717 25.537 320.218 25.1507 320.98 24.7621C321.189 24.6554 321.426 24.499 321.648 24.3206C321.7 24.0309 321.765 23.7444 321.843 23.4618C321.72 23.1963 321.571 22.9439 321.426 22.7511C320.552 21.5891 320.282 20.5167 320.974 19.3653C321.081 19.1876 321.153 19.0924 321.322 18.8834L321.952 18.1062C322.058 17.9746 322.107 17.9159 322.189 17.8274C323.159 16.781 324.344 16.7464 325.756 17.4039C325.957 17.4973 326.208 17.5832 326.47 17.6479C326.735 17.5038 327.007 17.3724 327.286 17.2542C327.407 17.0005 327.504 16.7391 327.56 16.5149C327.779 15.6391 328.062 15.0392 328.657 14.5633C329.02 14.2727 329.425 14.1092 329.852 14.0407C330.033 14.0118 330.152 14.0031 330.342 14.0008L331.5 14C331.793 14 331.922 14.0046 332.148 14.0407ZM331.586 16.0002L330.5 16C330 16 329.75 16 329.5 17C329.361 17.5551 329.068 18.2642 328.664 18.8708C328.022 19.0812 327.417 19.3761 326.864 19.7423C326.148 19.6717 325.424 19.4555 324.912 19.217C323.978 18.782 323.82 18.9763 323.506 19.3649L322.876 20.142C322.562 20.5306 322.404 20.7249 323.024 21.5485C323.373 22.012 323.745 22.6984 323.961 23.4045C323.74 24.0038 323.594 24.6392 323.532 25.2993C323.031 25.8335 322.401 26.282 321.889 26.5436C320.971 27.0121 321.027 27.2557 321.139 27.7429L321.364 28.7173C321.477 29.2044 321.533 29.448 322.564 29.4667C323.134 29.477 323.887 29.6018 324.567 29.8571C324.912 30.4319 325.332 30.9565 325.814 31.4177C325.908 32.1352 325.86 32.8935 325.742 33.449C325.529 34.4574 325.753 34.567 326.203 34.7862L327.102 35.2245C327.551 35.4437 327.776 35.5533 328.439 34.7641C328.811 34.3216 329.393 33.8067 330.029 33.4377C330.347 33.4788 330.671 33.5 331 33.5C331.329 33.5 331.653 33.4788 331.971 33.4377C332.608 33.8067 333.19 34.3216 333.561 34.7641C334.224 35.5533 334.449 35.4437 334.898 35.2245L335.797 34.7862C336.247 34.567 336.471 34.4574 336.258 33.449C336.14 32.8935 336.092 32.1352 336.187 31.4177C336.668 30.9565 337.088 30.4319 337.434 29.8571C338.113 29.6018 338.867 29.477 339.436 29.4667C340.467 29.448 340.523 29.2044 340.636 28.7173L340.861 27.7429C340.973 27.2557 341.029 27.0121 340.111 26.5436C339.599 26.282 338.969 25.8335 338.468 25.2993C338.407 24.6392 338.26 24.0038 338.039 23.4045C338.255 22.6984 338.627 22.012 338.976 21.5485C339.596 20.7249 339.438 20.5306 339.124 20.142L338.494 19.3649C338.18 18.9763 338.022 18.782 337.088 19.217C336.576 19.4555 335.852 19.6717 335.136 19.7423C334.583 19.3761 333.978 19.0812 333.336 18.8708C332.932 18.2642 332.639 17.5551 332.5 17C332.265 16.0588 332.029 16.0035 331.586 16.0002ZM331 21.5C333.485 21.5 335.5 23.5147 335.5 26C335.5 28.4853 333.485 30.5 331 30.5C328.515 30.5 326.5 28.4853 326.5 26C326.5 23.5147 328.515 21.5 331 21.5ZM331 23.5C329.619 23.5 328.5 24.6193 328.5 26C328.5 27.3807 329.619 28.5 331 28.5C332.381 28.5 333.5 27.3807 333.5 26C333.5 24.6193 332.381 23.5 331 23.5Z" fill="#99A2AD"/>
<path fill-rule="evenodd" clip-rule="evenodd" d="M28 38C34.6274 38 40 32.6274 40 26C40 19.3726 34.6274 14 28 14C21.3726 14 16 19.3726 16 26C16 32.6274 21.3726 38 28 38Z" fill="url(#paint0_angular)"/>
<path d="M39.625 26C39.625 32.4203 34.4203 37.625 28 37.625C21.5797 37.625 16.375 32.4203 16.375 26C16.375 19.5797 21.5797 14.375 28 14.375C34.4203 14.375 39.625 19.5797 39.625 26Z" stroke="black" stroke-opacity="0.08" stroke-width="0.75"/>
<g filter="url(#filter0_d)">
<path fill-rule="evenodd" clip-rule="evenodd" d="M23.5918 30.9312C23.8132 31.1292 24.0983 31.2281 24.4473 31.2281C24.791 31.2281 25.0632 31.1318 25.2637 30.9391C25.4642 30.7463 25.6296 30.4234 25.7598 29.9703L26.1738 28.6969H29.7598L30.166 29.9703C30.2962 30.413 30.4668 30.7333 30.6777 30.9312C30.8887 31.1292 31.166 31.2281 31.5098 31.2281C31.8796 31.2281 32.1764 31.1266 32.4004 30.9234C32.6243 30.7203 32.7363 30.4495 32.7363 30.1109C32.7363 29.8661 32.666 29.525 32.5254 29.0875L30.1738 22.1734C29.9603 21.5328 29.6895 21.0771 29.3613 20.8062C29.0332 20.5354 28.5879 20.4 28.0254 20.4C27.4629 20.4 27.0163 20.5367 26.6855 20.8102C26.3548 21.0836 26.0827 21.538 25.8691 22.1734L23.5098 29.0875C23.4212 29.3531 23.3574 29.5667 23.3184 29.7281C23.2793 29.8896 23.2598 30.0354 23.2598 30.1656C23.2598 30.4781 23.3704 30.7333 23.5918 30.9312ZM27.916 22.7906H28.041L29.2363 26.8297H26.7051L27.916 22.7906Z" fill="white"/>
</g>
<path d="M78.3083 15C80.8978 15 82.1262 15.2372 83.4021 15.9196C84.5542 16.5357 85.4643 17.4458 86.0804 18.5979C86.7628 19.8738 87 21.1022 87 23.6917V28.3083C87 30.8978 86.7628 32.1262 86.0804 33.4021C85.4643 34.5542 84.5542 35.4643 83.4021 36.0804C82.1262 36.7628 80.8978 37 78.3083 37H73.6917C71.1022 37 69.8738 36.7628 68.5979 36.0804C67.4458 35.4643 66.5357 34.5542 65.9196 33.4021C65.2372 32.1262 65 30.8978 65 28.3083V23.6917C65 21.1022 65.2372 19.8738 65.9196 18.5979C66.5357 17.4458 67.4458 16.5357 68.5979 15.9196C69.8738 15.2372 71.1022 15 73.6917 15H78.3083ZM79.9791 27.4419L75.7771 32.6294C75.426 33.0628 74.7883 33.1253 74.3598 32.7682L72.0614 30.8528L68.9632 33.9516C69.1441 34.0857 69.3368 34.2076 69.5411 34.3168C70.4876 34.823 71.4042 35 73.6917 35H78.3083C80.5958 35 81.5124 34.823 82.4589 34.3168C83.2624 33.8871 83.8871 33.2624 84.3168 32.4589C84.4637 32.1842 84.5829 31.9121 84.6781 31.6082L79.9791 27.4419ZM78.3083 17H73.6917C71.4042 17 70.4876 17.177 69.5411 17.6832C68.7376 18.1129 68.1129 18.7376 67.6832 19.5411C67.177 20.4876 67 21.4042 67 23.6917V28.3083C67 30.5652 67.1723 31.4876 67.6631 32.4209L71.2929 28.7929C71.6586 28.4272 72.2429 28.4007 72.6402 28.7318L74.8612 30.5826L79.0831 25.3706C79.4417 24.9278 80.0972 24.8738 80.5236 25.2517L84.9887 29.2102C84.9964 28.9349 85 28.6356 85 28.3083V23.6917C85 21.4042 84.823 20.4876 84.3168 19.5411C83.8871 18.7376 83.2624 18.1129 82.4589 17.6832C81.5124 17.177 80.5958 17 78.3083 17ZM72.5 21C73.3284 21 74 21.6716 74 22.5C74 23.3284 73.3284 24 72.5 24C71.6716 24 71 23.3284 71 22.5C71 21.6716 71.6716 21 72.5 21Z" fill="#99A2AD"/>
<path d="M121 28.9303V31.3936C121 36.0815 116.417 38.4933 113.927 36.0031C111.437 33.5128 113.849 28.9303 118.537 28.9303H121ZM119 30.9303H118.537C115.522 30.9303 114.198 33.4459 115.341 34.5889C116.484 35.7318 119 34.4077 119 31.3936V30.9303ZM129.388 15.5227C131.01 15.1847 132.599 16.2257 132.937 17.8477C132.979 18.049 133 18.254 133 18.4596V28.8936C133 33.5815 128.417 35.9933 125.927 33.5031C123.437 31.0128 125.849 26.4303 130.537 26.4303L130.999 26.43V21.729L120.999 23.812L121 30H119V20.9168C119 19.9736 119.079 19.4868 119.313 18.9626C119.535 18.4667 119.872 18.0517 120.313 17.7333C120.778 17.3967 121.239 17.2205 122.162 17.0281L129.388 15.5227ZM131 28.4303H130.537C127.522 28.4303 126.198 30.9459 127.341 32.0889C128.484 33.2318 131 31.9077 131 28.8936V28.4303ZM130.979 18.2556C130.866 17.715 130.337 17.368 129.796 17.4806L122.57 18.9861C121.899 19.1258 121.689 19.2062 121.485 19.3538C121.329 19.4664 121.217 19.6042 121.139 19.7796C121.036 20.0095 121 20.2315 121 20.9168L120.999 21.77L130.999 19.687L131 18.4596C131 18.4253 130.998 18.3911 130.995 18.3571L130.979 18.2556Z" fill="#99A2AD"/>
<path d="M164.75 24C165.993 24 167 25.0074 167 26.25C167 27.4926 165.993 28.5 164.75 28.5C163.507 28.5 162.5 27.4926 162.5 26.25C162.5 25.0074 163.507 24 164.75 24ZM171.75 24C172.993 24 174 25.0074 174 26.25C174 27.4926 172.993 28.5 171.75 28.5C170.507 28.5 169.5 27.4926 169.5 26.25C169.5 25.0074 170.507 24 171.75 24ZM178.75 24C179.993 24 181 25.0074 181 26.25C181 27.4926 179.993 28.5 178.75 28.5C177.507 28.5 176.5 27.4926 176.5 26.25C176.5 25.0074 177.507 24 178.75 24Z" fill="#99A2AD"/>
<rect x="16" width="328" height="0.5" fill="#D7D8D9"/>
<defs>
<filter id="filter0_d" x="21.2598" y="19.4" width="13.4766" height="14.8281" filterUnits="userSpaceOnUse" color-interpolation-filters="sRGB">
<feFlood flood-opacity="0" result="BackgroundImageFix"/>
<feColorMatrix in="SourceAlpha" type="matrix" values="0 0 0 0 0 0 0 0 0 0 0 0 0 0 0 0 0 0 127 0"/>
<feOffset dy="1"/>
<feGaussianBlur stdDeviation="1"/>
<feColorMatrix type="matrix" values="0 0 0 0 0 0 0 0 0 0 0 0 0 0 0 0 0 0 0.237121 0"/>
<feBlend mode="normal" in2="BackgroundImageFix" result="effect1_dropShadow"/>
<feBlend mode="normal" in="SourceGraphic" in2="effect1_dropShadow" result="shape"/>
</filter>
<radialGradient id="paint0_angular" cx="0" cy="0" r="1" gradientUnits="userSpaceOnUse" gradientTransform="translate(28 26) scale(12)">
<stop offset="0.0865009" stop-color="#FD5C5C"/>
<stop offset="0.201056" stop-color="#FE77C4"/>
<stop offset="0.332399" stop-color="#C47EFF"/>
<stop offset="0.445851" stop-color="#508DFA"/>
<stop offset="0.572885" stop-color="#5FE3FF"/>
<stop offset="0.691458" stop-color="#50E98E"/>
<stop offset="0.816649" stop-color="#FFED63"/>
<stop offset="0.947666" stop-color="#FFB063"/>
</radialGradient>
</defs>
</svg>
