<svg width="18" height="20" viewBox="0 0 18 20" fill="none" xmlns="http://www.w3.org/2000/svg">
<path d="M8 3.49995C11.589 3.49995 14.5 6.40995 14.5 9.99995C14.5 13.59 11.589 16.5 8 16.5C4.41 16.5 1.5 13.59 1.5 9.99995C1.5 6.40995 4.41 3.49995 8 3.49995ZM8 4.99995C5.23843 4.99995 3 7.23838 3 9.99995C3 12.7615 5.23843 15 8 15C10.761 15 13 12.7611 13 9.99995C13 7.23876 10.761 4.99995 8 4.99995ZM7.57025 6.67995C7.98446 6.67995 8.32025 7.01574 8.32025 7.42995V9.83904L10.6967 10.6436C11.0891 10.7764 11.2995 11.2021 11.1666 11.5944C11.0338 11.9868 10.6081 12.1972 10.2158 12.0644L7.32976 11.0874C7.0252 10.9842 6.82025 10.6985 6.82025 10.377V7.42995C6.82025 7.01574 7.15604 6.67995 7.57025 6.67995Z" fill="#99A2AD"/>
</svg>
