<svg width="20" height="20" viewBox="0 0 20 20" fill="none" xmlns="http://www.w3.org/2000/svg">
<path fill-rule="evenodd" clip-rule="evenodd" d="M6.00608 4.8274C5.68065 4.50196 5.15301 4.50196 4.82757 4.8274C4.50214 5.15284 4.50214 5.68047 4.82757 6.00591L8.82165 9.99999L4.82757 13.9941C4.50214 14.3195 4.50214 14.8471 4.82757 15.1726C5.15301 15.498 5.68065 15.498 6.00608 15.1726L10.0002 11.1785L13.9942 15.1726C14.3197 15.498 14.8473 15.498 15.1728 15.1726C15.4982 14.8471 15.4982 14.3195 15.1728 13.9941L11.1787 9.99999L15.1728 6.00591C15.4982 5.68047 15.4982 5.15284 15.1728 4.8274C14.8473 4.50196 14.3197 4.50196 13.9942 4.8274L10.0002 8.82148L6.00608 4.8274Z" fill="#99A2AD"/>
</svg>
