<svg width="24" height="24" viewBox="0 0 24 24" fill="none" xmlns="http://www.w3.org/2000/svg">
<path d="M20 12C20 16.4182 16.4182 20 12 20C7.58222 20 4 16.4182 4 12C4 7.58222 7.58222 4 12 4C16.4182 4 20 7.58222 20 12Z" fill="#FFCC4D"/>
<path d="M10.8698 11.0288C10.8431 10.9688 10.2036 9.56348 8.8889 9.56348C7.57467 9.56348 6.93467 10.9688 6.90801 11.0288C6.86712 11.1208 6.89379 11.2284 6.97201 11.2915C7.05067 11.355 7.16179 11.3568 7.24312 11.2977C7.2489 11.2937 7.80401 10.8968 8.8889 10.8968C9.96712 10.8968 10.5218 11.2884 10.5342 11.2973C10.5733 11.3266 10.62 11.3413 10.6667 11.3413C10.7156 11.3413 10.7649 11.3248 10.8049 11.2928C10.8845 11.2297 10.9107 11.1213 10.8698 11.0288Z" fill="#66471B"/>
<path d="M17.7778 9.99997C17.7778 11.5955 16.4844 12.8889 14.8889 12.8889C13.2933 12.8889 12 11.5955 12 9.99997C12 8.40442 13.2933 7.11108 14.8889 7.11108C16.4844 7.11108 17.7778 8.40442 17.7778 9.99997Z" fill="#F5F8FA"/>
<path d="M14.8889 11.1111C15.5025 11.1111 16 10.6137 16 10C16 9.38638 15.5025 8.88892 14.8889 8.88892C14.2752 8.88892 13.7778 9.38638 13.7778 10C13.7778 10.6137 14.2752 11.1111 14.8889 11.1111Z" fill="#292F33"/>
<path d="M7.11108 13.4497C7.11108 15.2115 9.15375 17.4497 12 17.4497C14.8462 17.4497 16.8889 15.2275 16.8889 13.4497C16.8889 13.4497 12.2964 14.6746 7.11108 13.4497Z" fill="#66471B"/>
<path d="M12.2422 14.4907L11.7573 14.4885C10.328 14.4556 9.33331 14.2236 9.33331 14.2236V17.3174C9.33331 18.6507 10.2222 19.9841 12 19.9841C13.7778 19.9841 14.6666 18.6507 14.6666 17.3174V14.2419C13.8124 14.417 12.9835 14.4827 12.2422 14.4907V14.4907Z" fill="#E8596E"/>
<path d="M12 18.1525C12.1338 18.1525 12.2422 18.0441 12.2422 17.9103V14.4907L11.7573 14.4885V17.9103C11.7578 18.0441 11.8662 18.1525 12 18.1525V18.1525Z" fill="#DD2F45"/>
</svg>
