<svg width="24" height="24" viewBox="0 0 24 24" fill="none" xmlns="http://www.w3.org/2000/svg">
<path d="M12 20C16.4183 20 20 16.4183 20 12C20 7.58172 16.4183 4 12 4C7.58172 4 4 7.58172 4 12C4 16.4183 7.58172 20 12 20Z" fill="#FFCC4D"/>
<path d="M15.3266 16.1684C15.3066 16.0888 14.8075 14.2222 12 14.2222C9.19198 14.2222 8.69331 16.0888 8.67331 16.1684C8.64887 16.2648 8.69242 16.3648 8.77864 16.4146C8.86531 16.4639 8.97375 16.4493 9.04531 16.3804C9.05375 16.3719 9.91375 15.5555 12 15.5555C14.0862 15.5555 14.9466 16.3719 14.9546 16.3799C14.9973 16.4222 15.0542 16.4444 15.1111 16.4444C15.1484 16.4444 15.1862 16.4351 15.2204 16.4159C15.3075 16.3662 15.3511 16.2653 15.3266 16.1684Z" fill="#664500"/>
<path d="M9.33334 11.5554C9.94699 11.5554 10.4445 10.859 10.4445 9.99989C10.4445 9.14078 9.94699 8.44434 9.33334 8.44434C8.71969 8.44434 8.22223 9.14078 8.22223 9.99989C8.22223 10.859 8.71969 11.5554 9.33334 11.5554Z" fill="#664500"/>
<path d="M14.6667 11.5554C15.2803 11.5554 15.7778 10.859 15.7778 9.99989C15.7778 9.14078 15.2803 8.44434 14.6667 8.44434C14.053 8.44434 13.5555 9.14078 13.5555 9.99989C13.5555 10.859 14.053 11.5554 14.6667 11.5554Z" fill="#664500"/>
</svg>
