<svg width="24" height="24" viewBox="0 0 24 24" fill="none" xmlns="http://www.w3.org/2000/svg">
<path d="M20 12C20 16.4182 16.4182 20 12 20C7.58222 20 4 16.4182 4 12C4 7.58222 7.58222 4 12 4C16.4182 4 20 7.58222 20 12Z" fill="#FFCC4D"/>
<path d="M9.11111 12C9.72476 12 10.2222 10.9056 10.2222 9.55553C10.2222 8.2055 9.72476 7.11108 9.11111 7.11108C8.49746 7.11108 8 8.2055 8 9.55553C8 10.9056 8.49746 12 9.11111 12Z" fill="#664500"/>
<path d="M14.8889 12C15.5025 12 16 10.9056 16 9.55553C16 8.2055 15.5025 7.11108 14.8889 7.11108C14.2752 7.11108 13.7778 8.2055 13.7778 9.55553C13.7778 10.9056 14.2752 12 14.8889 12Z" fill="#664500"/>
<path d="M12 13.7778C10.3898 13.7778 9.32131 13.5903 7.99997 13.3334C7.6982 13.2752 7.11108 13.3334 7.11108 14.2223C7.11108 16.0001 9.15331 18.2223 12 18.2223C14.8462 18.2223 16.8889 16.0001 16.8889 14.2223C16.8889 13.3334 16.3018 13.2747 16 13.3334C14.6786 13.5903 13.6102 13.7778 12 13.7778Z" fill="#664500"/>
<path d="M8 14.2222C8 14.2222 9.33333 14.6666 12 14.6666C14.6667 14.6666 16 14.2222 16 14.2222C16 14.2222 15.1111 15.9999 12 15.9999C8.88889 15.9999 8 14.2222 8 14.2222Z" fill="white"/>
</svg>
