<svg width="16" height="16" viewBox="0 0 16 16" fill="none" xmlns="http://www.w3.org/2000/svg">
<path d="M16 8C16 12.4182 12.4182 16 8 16C3.58178 16 0 12.4182 0 8C0 3.58178 3.58178 0 8 0C12.4182 0 16 3.58178 16 8Z" fill="#FFCC4D"/>
<path d="M12.5831 6.93868C12.5053 6.87557 12.3938 6.87335 12.312 6.93246C12.3067 6.93646 11.7516 7.33335 10.6667 7.33335C9.58222 7.33335 9.02666 6.93646 9.02222 6.93335C8.94089 6.87246 8.82889 6.87424 8.75066 6.93735C8.67155 7.00046 8.64489 7.1089 8.68578 7.20135C8.71244 7.26135 9.35244 8.66668 10.6667 8.66668C11.9813 8.66668 12.6209 7.26135 12.6476 7.20135C12.6884 7.10935 12.6618 7.00179 12.5831 6.93868ZM6.97866 6.93246C6.97333 6.93646 6.41866 7.33335 5.33333 7.33335C4.24844 7.33335 3.69333 6.93646 3.68889 6.93335C3.60755 6.87246 3.496 6.87424 3.41733 6.93735C3.33822 7.00046 3.31155 7.1089 3.35244 7.20135C3.37911 7.26135 4.01911 8.66668 5.33333 8.66668C6.648 8.66668 7.28755 7.26135 7.31422 7.20135C7.35511 7.10935 7.32844 7.00179 7.24978 6.93868C7.17155 6.87512 7.05955 6.87335 6.97866 6.93246ZM12.8893 5.77779C12.7538 5.77779 12.6209 5.71646 12.5333 5.60001C11.3813 4.06401 9.43955 4.43201 9.42044 4.43557C9.17733 4.48357 8.94578 4.32757 8.89733 4.08712C8.84933 3.84668 9.00533 3.61246 9.24578 3.56401C9.34844 3.54312 11.76 3.08757 13.244 5.06624C13.3916 5.26268 13.3516 5.54135 13.1551 5.68846C13.0756 5.7489 12.9822 5.77779 12.8893 5.77779V5.77779ZM3.11067 5.77779C3.01822 5.77779 2.92444 5.7489 2.84444 5.6889C2.648 5.54179 2.60844 5.26312 2.75555 5.06668C4.23955 3.08712 6.65155 3.54401 6.75378 3.56446C6.99467 3.61246 7.15066 3.84668 7.10222 4.08757C7.05422 4.32757 6.82044 4.48357 6.58044 4.43646C6.49778 4.4209 4.60889 4.07735 3.46667 5.60001C3.37955 5.71646 3.24578 5.77779 3.11067 5.77779V5.77779ZM10.3351 10.4787C10.2516 10.4293 10.1431 10.4405 10.0698 10.5053C10.0653 10.5089 9.61955 10.8889 8 10.8889C6.38178 10.8889 5.93511 10.5093 5.93511 10.5093C5.86444 10.4382 5.75555 10.4249 5.66844 10.4729C5.58178 10.5222 5.53822 10.6236 5.56266 10.7205C5.56711 10.74 6.07111 12.6667 8 12.6667C9.92889 12.6667 10.4329 10.74 10.4378 10.7205C10.4613 10.6258 10.4182 10.5289 10.3351 10.4787V10.4787Z" fill="#664500"/>
</svg>
