<svg width="16" height="16" viewBox="0 0 16 16" fill="none" xmlns="http://www.w3.org/2000/svg">
<path d="M8 16C12.4183 16 16 12.4183 16 8C16 3.58172 12.4183 0 8 0C3.58172 0 0 3.58172 0 8C0 12.4183 3.58172 16 8 16Z" fill="#FFCC4D"/>
<path d="M11.3266 12.1684C11.3066 12.0888 10.8075 10.2222 7.99998 10.2222C5.19198 10.2222 4.69331 12.0888 4.67331 12.1684C4.64887 12.2648 4.69242 12.3648 4.77864 12.4146C4.86531 12.4639 4.97375 12.4493 5.04531 12.3804C5.05375 12.3719 5.91375 11.5555 7.99998 11.5555C10.0862 11.5555 10.9466 12.3719 10.9546 12.3799C10.9973 12.4222 11.0542 12.4444 11.1111 12.4444C11.1484 12.4444 11.1862 12.4351 11.2204 12.4159C11.3075 12.3662 11.3511 12.2653 11.3266 12.1684Z" fill="#664500"/>
<path d="M5.33334 7.55545C5.94699 7.55545 6.44445 6.859 6.44445 5.99989C6.44445 5.14078 5.94699 4.44434 5.33334 4.44434C4.71969 4.44434 4.22223 5.14078 4.22223 5.99989C4.22223 6.859 4.71969 7.55545 5.33334 7.55545Z" fill="#664500"/>
<path d="M10.6667 7.55545C11.2803 7.55545 11.7778 6.859 11.7778 5.99989C11.7778 5.14078 11.2803 4.44434 10.6667 4.44434C10.053 4.44434 9.55554 5.14078 9.55554 5.99989C9.55554 6.859 10.053 7.55545 10.6667 7.55545Z" fill="#664500"/>
</svg>
