<svg width="24" height="24" viewBox="0 0 24 24" fill="none" xmlns="http://www.w3.org/2000/svg">
<path d="M20 12C20 16.4182 16.4182 20 12 20C7.58178 20 4 16.4182 4 12C4 7.58178 7.58178 4 12 4C16.4182 4 20 7.58178 20 12Z" fill="#FFCC4D"/>
<path d="M16.5831 10.9387C16.5053 10.8756 16.3938 10.8733 16.312 10.9325C16.3067 10.9365 15.7516 11.3333 14.6667 11.3333C13.5822 11.3333 13.0267 10.9365 13.0222 10.9333C12.9409 10.8725 12.8289 10.8742 12.7507 10.9373C12.6716 11.0005 12.6449 11.1089 12.6858 11.2013C12.7124 11.2613 13.3524 12.6667 14.6667 12.6667C15.9813 12.6667 16.6209 11.2613 16.6476 11.2013C16.6884 11.1093 16.6618 11.0018 16.5831 10.9387ZM10.9787 10.9325C10.9733 10.9365 10.4187 11.3333 9.33333 11.3333C8.24844 11.3333 7.69333 10.9365 7.68889 10.9333C7.60755 10.8725 7.496 10.8742 7.41733 10.9373C7.33822 11.0005 7.31155 11.1089 7.35244 11.2013C7.37911 11.2613 8.01911 12.6667 9.33333 12.6667C10.648 12.6667 11.2876 11.2613 11.3142 11.2013C11.3551 11.1093 11.3284 11.0018 11.2498 10.9387C11.1716 10.8751 11.0596 10.8733 10.9787 10.9325ZM16.8893 9.77779C16.7538 9.77779 16.6209 9.71646 16.5333 9.60001C15.3813 8.06401 13.4396 8.43201 13.4204 8.43557C13.1773 8.48357 12.9458 8.32757 12.8973 8.08712C12.8493 7.84668 13.0053 7.61246 13.2458 7.56401C13.3484 7.54312 15.76 7.08757 17.244 9.06624C17.3916 9.26268 17.3516 9.54135 17.1551 9.68846C17.0756 9.7489 16.9822 9.77779 16.8893 9.77779V9.77779ZM7.11067 9.77779C7.01822 9.77779 6.92444 9.7489 6.84444 9.6889C6.648 9.54179 6.60844 9.26312 6.75555 9.06668C8.23955 7.08712 10.6516 7.54401 10.7538 7.56446C10.9947 7.61246 11.1507 7.84668 11.1022 8.08757C11.0542 8.32757 10.8204 8.48357 10.5804 8.43646C10.4978 8.4209 8.60889 8.07735 7.46667 9.60001C7.37955 9.71646 7.24578 9.77779 7.11067 9.77779V9.77779ZM14.3351 14.4787C14.2516 14.4293 14.1431 14.4405 14.0698 14.5053C14.0653 14.5089 13.6196 14.8889 12 14.8889C10.3818 14.8889 9.93511 14.5093 9.93511 14.5093C9.86444 14.4382 9.75555 14.4249 9.66844 14.4729C9.58178 14.5222 9.53822 14.6236 9.56266 14.7205C9.56711 14.74 10.0711 16.6667 12 16.6667C13.9289 16.6667 14.4329 14.74 14.4378 14.7205C14.4613 14.6258 14.4182 14.5289 14.3351 14.4787V14.4787Z" fill="#664500"/>
</svg>
