<svg width="16" height="16" viewBox="0 0 16 16" fill="none" xmlns="http://www.w3.org/2000/svg">
<path d="M16 8C16 12.4182 12.4182 16 8 16C3.58222 16 0 12.4182 0 8C0 3.58222 3.58222 0 8 0C12.4182 0 16 3.58222 16 8Z" fill="#FFCC4D"/>
<path d="M6.86979 7.02881C6.84312 6.96881 6.20356 5.56348 4.8889 5.56348C3.57467 5.56348 2.93467 6.96881 2.90801 7.02881C2.86712 7.12081 2.89379 7.22837 2.97201 7.29148C3.05067 7.35503 3.16179 7.35681 3.24312 7.2977C3.2489 7.2937 3.80401 6.89681 4.8889 6.89681C5.96712 6.89681 6.52179 7.28837 6.53423 7.29725C6.57334 7.32659 6.62001 7.34125 6.66667 7.34125C6.71556 7.34125 6.7649 7.32481 6.8049 7.29281C6.88445 7.2297 6.91067 7.12125 6.86979 7.02881Z" fill="#66471B"/>
<path d="M13.7778 5.99997C13.7778 7.59553 12.4844 8.88886 10.8889 8.88886C9.29333 8.88886 8 7.59553 8 5.99997C8 4.40442 9.29333 3.11108 10.8889 3.11108C12.4844 3.11108 13.7778 4.40442 13.7778 5.99997Z" fill="#F5F8FA"/>
<path d="M10.8889 7.11114C11.5025 7.11114 12 6.61368 12 6.00003C12 5.38638 11.5025 4.88892 10.8889 4.88892C10.2752 4.88892 9.77777 5.38638 9.77777 6.00003C9.77777 6.61368 10.2752 7.11114 10.8889 7.11114Z" fill="#292F33"/>
<path d="M3.11108 9.44971C3.11108 11.2115 5.15375 13.4497 7.99997 13.4497C10.8462 13.4497 12.8889 11.2275 12.8889 9.44971C12.8889 9.44971 8.29642 10.6746 3.11108 9.44971Z" fill="#66471B"/>
<path d="M8.2422 10.4907L7.75731 10.4885C6.32798 10.4556 5.33331 10.2236 5.33331 10.2236V13.3174C5.33331 14.6507 6.2222 15.9841 7.99998 15.9841C9.77776 15.9841 10.6666 14.6507 10.6666 13.3174V10.2419C9.81242 10.417 8.98354 10.4827 8.2422 10.4907V10.4907Z" fill="#E8596E"/>
<path d="M7.99999 14.1525C8.13377 14.1525 8.24221 14.0441 8.24221 13.9103V10.4907L7.75732 10.4885V13.9103C7.75777 14.0441 7.86621 14.1525 7.99999 14.1525V14.1525Z" fill="#DD2F45"/>
</svg>
