<svg width="20" height="20" viewBox="0 0 20 20" fill="none" xmlns="http://www.w3.org/2000/svg">
<path d="M5 8.25C5 10.1047 6.31424 12.8042 8.94272 16.3486L8.94269 16.3487C9.27332 16.7945 9.90279 16.8879 10.3486 16.5573C10.4281 16.4984 10.4984 16.4281 10.5573 16.3487C13.1858 12.8042 14.5 10.1047 14.5 8.25C14.5 5.62393 12.3761 3.5 9.75 3.5C7.12393 3.5 5 5.62393 5 8.25ZM8 8.25C8 7.284 8.784 6.5 9.75 6.5C10.716 6.5 11.5 7.284 11.5 8.25C11.5 9.216 10.716 10 9.75 10C8.784 10 8 9.216 8 8.25Z" fill="#4986CC"/>
</svg>
