<svg width="32" height="32" viewBox="0 0 32 32" fill="none" xmlns="http://www.w3.org/2000/svg">
<path d="M27.9333 21.9371C27.6275 21.2309 27.2763 20.4645 26.4667 20.4645H25.7333C26.5429 20.4645 27.2 19.8053 27.2 18.992V6.47253C27.2 5.65927 26.5429 5 25.7333 5H6.66667C5.85707 5 5.2 5.65927 5.2 6.47253V18.992C5.2 19.8053 5.85707 20.4645 6.66667 20.4645H5.93333C5.12373 20.4645 4.71087 21.2008 4.46667 21.9371L3 25.5267C3 26.3407 3.65707 27 4.46667 27H27.9333C28.7429 27 29.4 26.3407 29.4 25.5275L27.9333 21.9371V21.9371Z" fill="#CCD6DD"/>
<path d="M3.00592 25.5884L3.01032 25.6302L3.13499 26.1376C3.36672 26.6451 3.87419 27 4.46672 27H27.9334C28.7225 27 29.3612 26.373 29.3942 25.5884H3.00592Z" fill="#9AAAB4"/>
<path d="M25.7333 18.2551C25.7333 18.6621 25.4055 18.9914 25 18.9914H7.39996C6.99516 18.9914 6.66663 18.6621 6.66663 18.2551V7.20966C6.66663 6.80266 6.99516 6.47339 7.39996 6.47339H25C25.4055 6.47339 25.7333 6.80339 25.7333 7.20966V18.2551Z" fill="#5DADEC"/>
<path d="M27.1311 23.3641L26.5738 21.7691C26.3985 21.4317 26.1081 21.1553 25.7026 21.1553H6.74736C6.34256 21.1553 6.08296 21.4545 5.89963 21.915L5.3951 23.3648C5.2345 23.8019 5.72363 24.1011 6.12843 24.1011H11.6856C11.6856 24.1011 12.3728 24.0666 12.4945 23.6552C12.6353 23.18 12.7988 22.4643 12.834 22.3381C12.8883 22.1445 13.1186 21.9487 13.4618 21.9487H19.7523C20.119 21.9487 20.2994 22.1343 20.347 22.3638C20.3778 22.5134 20.5758 23.2005 20.6682 23.6706C20.7496 24.0893 21.5636 24.1003 21.5636 24.1003H26.3992C26.8033 24.1003 27.2917 23.7549 27.1311 23.3641V23.3641Z" fill="#AEBBC1"/>
<path d="M19.4084 24.8831H13.7023C13.4273 24.8831 13.3078 24.6316 13.3474 24.3881C13.387 24.1454 13.6106 23.0733 13.6282 22.9486C13.6451 22.8232 13.8292 22.6736 14.0125 22.6736H19.1568C19.3746 22.6736 19.5162 22.7931 19.5602 23.0322C19.6034 23.272 19.7816 24.2356 19.7956 24.4556C19.8095 24.6763 19.6716 24.8831 19.4084 24.8831V24.8831Z" fill="#9AAAB4"/>
</svg>
