<svg width="32" height="32" viewBox="0 0 32 32" fill="none" xmlns="http://www.w3.org/2000/svg">
<path d="M11.6275 21.715H27.9775C27.9775 21.715 30.43 21.715 30.43 18.445C30.43 16.81 30.43 13.54 29.6125 12.7225C28.795 11.905 23.0725 7 20.62 7H15.715C13.2625 7 7.54 12.7225 7.54 12.7225L4.27 13.54C4.27 13.54 1.8175 14.3575 1.8175 15.9925V18.445C1.8175 18.445 1 18.7213 1 20.0448C1 21.715 2.635 21.715 2.635 21.715H11.6275Z" fill="#DD2E44"/>
<path d="M17.35 8.63452H15.715C14.08 8.63452 9.17502 13.5395 9.17502 13.5395C9.17502 13.5395 13.2601 13.3245 17.35 13.1152V8.63452ZM25.525 11.087C24.7075 10.2695 21.4375 8.63452 19.8025 8.63452H18.985V13.0319C22.264 12.8651 25.1833 12.722 25.525 12.722C26.3425 12.722 26.3425 11.9045 25.525 11.087V11.087Z" fill="#BBDDF5"/>
<path d="M9.17503 24.1677C10.981 24.1677 12.445 22.7037 12.445 20.8977C12.445 19.0917 10.981 17.6277 9.17503 17.6277C7.36906 17.6277 5.90503 19.0917 5.90503 20.8977C5.90503 22.7037 7.36906 24.1677 9.17503 24.1677Z" fill="#292F33"/>
<path d="M9.17498 22.5317C10.078 22.5317 10.81 21.7997 10.81 20.8967C10.81 19.9937 10.078 19.2617 9.17498 19.2617C8.27199 19.2617 7.53998 19.9937 7.53998 20.8967C7.53998 21.7997 8.27199 22.5317 9.17498 22.5317Z" fill="#CCD6DD"/>
<path d="M23.0726 24.1677C24.8785 24.1677 26.3425 22.7037 26.3425 20.8977C26.3425 19.0917 24.8785 17.6277 23.0726 17.6277C21.2666 17.6277 19.8026 19.0917 19.8026 20.8977C19.8026 22.7037 21.2666 24.1677 23.0726 24.1677Z" fill="#292F33"/>
<path d="M23.0725 22.5317C23.9755 22.5317 24.7075 21.7997 24.7075 20.8967C24.7075 19.9937 23.9755 19.2617 23.0725 19.2617C22.1695 19.2617 21.4375 19.9937 21.4375 20.8967C21.4375 21.7997 22.1695 22.5317 23.0725 22.5317Z" fill="#CCD6DD"/>
</svg>
