<svg width="32" height="32" viewBox="0 0 32 32" fill="none" xmlns="http://www.w3.org/2000/svg">
<path d="M16.0311 4C10.4941 4 6.00519 8.48893 6.00519 14.0259V20.0414H8.01037V14.0259C8.01037 9.34715 11.5321 5.87952 16.0311 5.87952C20.5294 5.87952 24.0518 9.34715 24.0518 14.0259V20.7098L26.057 20.0414V14.0259C26.057 8.48893 21.5681 4 16.0311 4Z" fill="#66757F"/>
<path d="M8.01036 22.0467C8.01036 22.7846 7.41148 23.3834 6.67357 23.3834H5.33679C4.59888 23.3834 4 22.7846 4 22.0467V16.0311C4 15.2932 4.59888 14.6943 5.33679 14.6943H6.67357C7.41148 14.6943 8.01036 15.2932 8.01036 16.0311V22.0467ZM28.0622 22.0467C28.0622 22.7846 27.4633 23.3834 26.7254 23.3834H25.3886C24.6507 23.3834 24.0518 22.7846 24.0518 22.0467V16.0311C24.0518 15.2932 24.6507 14.6943 25.3886 14.6943H26.7254C27.4633 14.6943 28.0622 15.2932 28.0622 16.0311V22.0467Z" fill="#31373D"/>
<path d="M16.8211 10.6946L12.5675 11.5722C12.2667 11.6344 12.0207 11.9358 12.0207 12.2433V23.0612C11.5943 22.9095 11.1244 22.8206 10.6258 22.8206C8.7643 22.8206 7.25574 23.9937 7.25574 25.4421C7.25574 26.8891 8.76497 28 10.6258 28C12.4545 27.9987 13.9738 26.7254 14.0259 25.3886V14.955L16.8358 14.3721C17.1359 14.31 17.3679 14.0079 17.3679 13.7011V11.1398C17.3679 10.8337 17.1219 10.6325 16.8211 10.6946V10.6946ZM22.1683 12.8007L19.2962 13.3789C18.9954 13.4411 18.7046 13.7425 18.7046 14.0493V21.6723C18.7046 21.5707 18.1178 21.5119 17.7689 21.5119C16.4161 21.5119 15.3406 22.3648 15.3406 23.4182C15.3406 24.4702 16.4488 25.3238 17.8023 25.3238C19.1558 25.3238 20.26 24.4702 20.26 23.4182L20.2506 15.8747L22.1683 15.475C22.469 15.4128 22.715 15.1114 22.715 14.8046V13.2472C22.715 12.9404 22.469 12.7392 22.1683 12.8007V12.8007Z" fill="#55ACEE"/>
</svg>
