<svg width="32" height="32" viewBox="0 0 32 32" fill="none" xmlns="http://www.w3.org/2000/svg">
<path d="M2 9.5C2 9.5 2 6.5 5 6.5H26C26 6.5 29 6.5 29 9.5V23C29 23 29 26 26 26H5C5 26 2 26 2 23V9.5Z" fill="#31373D"/>
<path d="M17.75 23.75C21.8921 23.75 25.25 20.3921 25.25 16.25C25.25 12.1079 21.8921 8.75 17.75 8.75C13.6079 8.75 10.25 12.1079 10.25 16.25C10.25 20.3921 13.6079 23.75 17.75 23.75Z" fill="#CCD6DD"/>
<path d="M17.75 22.25C21.0637 22.25 23.75 19.5637 23.75 16.25C23.75 12.9363 21.0637 10.25 17.75 10.25C14.4363 10.25 11.75 12.9363 11.75 16.25C11.75 19.5637 14.4363 22.25 17.75 22.25Z" fill="#31373D"/>
<path d="M17.75 20C19.8211 20 21.5 18.3211 21.5 16.25C21.5 14.1789 19.8211 12.5 17.75 12.5C15.6789 12.5 14 14.1789 14 16.25C14 18.3211 15.6789 20 17.75 20Z" fill="#3B88C3"/>
<path d="M26.375 10.25C26.9963 10.25 27.5 9.74632 27.5 9.125C27.5 8.50368 26.9963 8 26.375 8C25.7537 8 25.25 8.50368 25.25 9.125C25.25 9.74632 25.7537 10.25 26.375 10.25Z" fill="white"/>
<path d="M14 8.75L16.25 4.25L11.75 5.75L8.75 2L7.25 5.75L2.75 5L5.75 9.5L2 12.5H6.5L5 17L9.5 14.75L14 18.5L13.25 12.5L17.75 11.75L14 8.75Z" fill="#FFAC33"/>
<path d="M9.5 12.5L7.25 14L8 11.75L5.75 11L8 9.5L5.75 7.25H8.75L9.5 5L11 7.25L13.25 6.5L11.75 8.75L14 11L11.75 11.75L12.5 14.75L9.5 12.5Z" fill="white"/>
</svg>
