<svg width="32" height="32" viewBox="0 0 32 32" fill="none" xmlns="http://www.w3.org/2000/svg">
<path d="M16.0001 4C8.26814 4 2 9.37291 2 15.9996C2 16.8287 2.098 17.6384 2.28545 18.4201C3.66912 20.8009 4.62657 19.2982 9.00003 17.1111C13.4544 14.8835 9.00003 20.2222 7.44447 23.3333C6.96613 24.29 7.22514 25.0997 7.88003 25.7631C10.1714 27.1662 12.9698 28 16.0001 28C23.732 28 30.0001 22.6279 30.0001 15.9996C30.0001 9.37291 23.732 4 16.0001 4V4ZM18.216 23.0144C17.9087 24.0613 16.3026 24.5109 14.6281 24.0185C12.9535 23.527 11.8452 22.281 12.1524 21.2333C12.4596 20.1864 14.0657 19.7369 15.7403 20.23C17.4148 20.7207 18.5232 21.9667 18.216 23.0144V23.0144Z" fill="#D99E82"/>
<path d="M9.7778 12.4443C11.0665 12.4443 12.1111 11.3996 12.1111 10.1109C12.1111 8.82226 11.0665 7.77759 9.7778 7.77759C8.48913 7.77759 7.44446 8.82226 7.44446 10.1109C7.44446 11.3996 8.48913 12.4443 9.7778 12.4443Z" fill="#5C913B"/>
<path d="M17.5556 10.8889C18.8443 10.8889 19.889 9.84418 19.889 8.55551C19.889 7.26684 18.8443 6.22217 17.5556 6.22217C16.267 6.22217 15.2223 7.26684 15.2223 8.55551C15.2223 9.84418 16.267 10.8889 17.5556 10.8889Z" fill="#226699"/>
<path d="M24.5557 15.5554C25.8443 15.5554 26.889 14.5107 26.889 13.222C26.889 11.9333 25.8443 10.8887 24.5557 10.8887C23.267 10.8887 22.2223 11.9333 22.2223 13.222C22.2223 14.5107 23.267 15.5554 24.5557 15.5554Z" fill="#DD2E44"/>
<path d="M23.7779 22.5554C25.0665 22.5554 26.1112 21.5107 26.1112 20.222C26.1112 18.9333 25.0665 17.8887 23.7779 17.8887C22.4892 17.8887 21.4445 18.9333 21.4445 20.222C21.4445 21.5107 22.4892 22.5554 23.7779 22.5554Z" fill="#FFCC4D"/>
</svg>
