<svg width="32" height="32" viewBox="0 0 32 32" fill="none" xmlns="http://www.w3.org/2000/svg">
<path d="M28 16C28 22.6273 22.6273 28 16 28C9.37333 28 4 22.6273 4 16C4 9.37333 9.37333 4 16 4C22.6273 4 28 9.37333 28 16Z" fill="#FFCC4D"/>
<path d="M8.66731 13.9999C8.45198 13.9999 8.24064 13.8959 8.11198 13.7033C7.90798 13.3966 7.99064 12.9826 8.29664 12.7786C8.38531 12.7199 10.4973 11.3333 13.3333 11.3333C13.7013 11.3333 14 11.6319 14 11.9999C14 12.3679 13.7013 12.6666 13.3333 12.6666C10.8966 12.6666 9.05464 13.8759 9.03664 13.8879C8.92264 13.9639 8.79398 13.9999 8.66731 13.9999V13.9999ZM23.3326 13.9999C23.2066 13.9999 23.078 13.9639 22.9646 13.8886C22.946 13.8766 21.0853 12.6666 18.6666 12.6666C18.298 12.6666 18 12.3679 18 11.9999C18 11.6319 18.298 11.3333 18.6666 11.3333C21.5026 11.3333 23.6146 12.7199 23.7033 12.7786C24.01 12.9826 24.0926 13.3966 23.888 13.7033C23.76 13.8959 23.548 13.9999 23.3326 13.9999Z" fill="#664500"/>
<path d="M22 18.7273L28 16C28 15.56 27.9727 15.1273 27.9273 14.7L22 17.394V16.6666C22 15.9306 21.4027 15.3333 20.6667 15.3333H11.3333C10.5973 15.3333 10 15.9306 10 16.6666V17.394L4.07333 14.7C4.02733 15.1273 4 15.56 4 16L10 18.7273V21.758L5.03133 20.8546C5.25867 21.368 5.52533 21.8593 5.82 22.3313L10 23.0913V24C10 24.736 10.5973 25.3333 11.3333 25.3333H20.6667C21.4027 25.3333 22 24.736 22 24V23.0913L26.1807 22.3306C26.4747 21.8586 26.7413 21.3673 26.9687 20.854L22 21.758V18.7273Z" fill="#F5F8FA"/>
</svg>
