<svg width="32" height="32" viewBox="0 0 32 32" fill="none" xmlns="http://www.w3.org/2000/svg">
<path d="M24.9174 11.0588H6.11765C4.948 11.0588 4 12.0068 4 13.1765C4 14.3461 4.948 15.2941 6.11765 15.2941C6.24612 15.2941 6.36965 15.2779 6.49176 15.2567L6.48047 15.2941L6.93012 25.1793C7 26.7308 8.32847 28 9.88141 28H21.1755C22.7285 28 24.0569 26.7308 24.1275 25.1793L24.5765 15.2941L24.5659 15.2588C24.6809 15.2779 24.7967 15.2941 24.9174 15.2941C26.0871 15.2941 27.0351 14.3461 27.0351 13.1765C27.0351 12.0068 26.0864 11.0588 24.9174 11.0588V11.0588Z" fill="#E1E8ED"/>
<path d="M23.0588 15.2942V27.2864C23.668 26.7683 24.0781 26.0187 24.112 25.1787L24.592 15.2942H23.0588ZM18.8236 15.2942H20.9412V28.0001H18.8236V15.2942ZM14.5883 28.0001V15.2942H16.7059V28.0001H14.5883ZM10.353 15.2942H12.4706V28.0001H10.353V15.2942ZM6.46497 15.2942L6.94497 25.1787C6.98308 26.126 7.49273 26.9631 8.23532 27.4756V15.2942H6.46497Z" fill="#DA2F47"/>
<path opacity="0.6" d="M6.46497 15.2942L6.53344 16.706H24.5228L24.592 15.2942H6.46497Z" fill="#99AAB5"/>
<path d="M24.6548 11.1082C24.6852 10.9784 24.7049 10.8449 24.7049 10.7059C24.7049 10.2301 24.5144 9.79953 24.208 9.48259C24.5059 9.29482 24.7049 8.96588 24.7049 8.58824C24.7049 8.00306 24.2306 7.52941 23.6461 7.52941C23.5071 7.52941 23.3744 7.55765 23.2522 7.60706C23.1541 7.24494 22.8718 6.96259 22.5096 6.86447C22.5591 6.74235 22.5873 6.61035 22.5873 6.47059C22.5873 5.88541 22.1129 5.41176 21.5285 5.41176C21.3936 5.41176 21.2659 5.43929 21.1473 5.48518C21.0125 4.64447 20.2896 4 19.4108 4C18.436 4 17.6461 4.78988 17.6461 5.76471C17.6461 5.89671 17.6631 6.02447 17.6906 6.14871C17.2388 6.22847 16.8506 6.47976 16.5873 6.83271C16.2654 6.40141 15.7558 6.11765 15.1755 6.11765C14.2007 6.11765 13.4108 6.90753 13.4108 7.88235L13.4115 7.89082C13.1969 7.72847 12.9478 7.612 12.6725 7.56188C12.5214 6.74024 11.8049 6.11765 10.9402 6.11765C10.0734 6.11765 9.35553 6.74376 9.20729 7.56824C9.08094 7.54847 8.95459 7.52941 8.82259 7.52941C7.45812 7.52941 6.352 8.63553 6.352 10C6.352 10.3847 6.44729 10.744 6.604 11.0687C6.06753 11.1202 5.64612 11.5671 5.64612 12.1176C5.64612 12.7028 6.12047 13.1765 6.70494 13.1765H24.352C24.9365 13.1765 25.4108 12.7028 25.4108 12.1176C25.4108 11.6391 25.0911 11.2388 24.6548 11.1082Z" fill="#FFD983"/>
<path d="M22.5873 9.64712C22.9771 9.64712 23.2932 9.33108 23.2932 8.94123C23.2932 8.55139 22.9771 8.23535 22.5873 8.23535C22.1974 8.23535 21.8814 8.55139 21.8814 8.94123C21.8814 9.33108 22.1974 9.64712 22.5873 9.64712Z" fill="#FFAC33"/>
<path d="M20.1167 8.23532C20.7015 8.23532 21.1755 7.76127 21.1755 7.1765C21.1755 6.59173 20.7015 6.11768 20.1167 6.11768C19.5319 6.11768 19.0579 6.59173 19.0579 7.1765C19.0579 7.76127 19.5319 8.23532 20.1167 8.23532Z" fill="#FFAC33"/>
<path d="M11.2932 8.94106C11.683 8.94106 11.999 8.62503 11.999 8.23518C11.999 7.84533 11.683 7.5293 11.2932 7.5293C10.9033 7.5293 10.5873 7.84533 10.5873 8.23518C10.5873 8.62503 10.9033 8.94106 11.2932 8.94106Z" fill="#FFAC33"/>
<path d="M24.7049 12.1177C24.7049 11.5332 24.2306 11.0589 23.6461 11.0589C23.1816 11.0589 22.7906 11.3603 22.648 11.7768C22.6275 11.7754 22.6092 11.7648 22.5873 11.7648C22.1976 11.7648 21.8814 12.081 21.8814 12.4706H24.64C24.6795 12.3598 24.7049 12.2419 24.7049 12.1177ZM9.52845 11.7648C9.66821 11.7648 9.80021 11.793 9.92233 11.8424C10.0437 11.3921 10.4517 11.0589 10.9402 11.0589C11.5247 11.0589 11.999 11.5325 11.999 12.1177C11.999 12.2419 11.9736 12.3598 11.9341 12.4706H14.8875C14.848 12.3598 14.8226 12.2419 14.8226 12.1177C14.8226 11.5325 15.2969 11.0589 15.8814 11.0589C16.0487 11.0589 16.2054 11.1012 16.3459 11.1704C16.2767 11.0299 16.2343 10.8732 16.2343 10.7059C16.2343 10.1208 16.7087 9.64712 17.2932 9.64712C17.8776 9.64712 18.352 10.1208 18.352 10.7059C18.352 10.8457 18.3237 10.9777 18.2743 11.0998C18.7247 11.2212 19.0579 11.6285 19.0579 12.1177C19.0579 12.2419 19.0324 12.3598 18.9929 12.4706H21.088L20.6884 12.1177C20.9849 11.8586 21.1755 11.4831 21.1755 11.0589C21.1755 10.2796 20.543 9.64712 19.7637 9.64712C19.4969 9.64712 19.2499 9.72547 19.0367 9.85465C19.0473 9.78617 19.0579 9.71841 19.0579 9.64712C19.0579 8.86782 18.4254 8.23535 17.6461 8.23535C17.0757 8.23535 16.5866 8.57559 16.3642 9.06265C16.2188 8.98782 16.0564 8.94123 15.8814 8.94123C15.2969 8.94123 14.8226 9.41559 14.8226 10.0001C14.8226 10.1398 14.8508 10.2718 14.9002 10.3939C14.4499 10.5161 14.1167 10.9234 14.1167 11.4118C14.1167 11.5516 14.1449 11.6836 14.1943 11.8057C14.032 11.8495 13.8852 11.9306 13.7637 12.0401C13.576 11.8706 13.3303 11.7648 13.0579 11.7648C12.8906 11.7648 12.7339 11.8071 12.5927 11.877C12.6626 11.7358 12.7049 11.5791 12.7049 11.4118C12.7049 10.8274 12.2306 10.353 11.6461 10.353C11.5063 10.353 11.3743 10.3812 11.2522 10.4306C11.1308 9.98029 10.7228 9.64712 10.2343 9.64712C9.64986 9.64712 9.17551 10.1215 9.17551 10.7059C9.17551 10.8457 9.20374 10.9777 9.25316 11.0998C9.0908 11.1436 8.94398 11.2248 8.82257 11.3342C8.6348 11.1648 8.38916 11.0589 8.11668 11.0589C7.53221 11.0589 7.05786 11.5332 7.05786 12.1177C7.05786 12.2419 7.08327 12.3598 7.1228 12.4706H8.53457C8.68068 12.0605 9.06821 11.7648 9.52845 11.7648V11.7648Z" fill="#FFAC33"/>
<path d="M5.64612 12.4707V13.1766C5.64612 13.5662 5.96235 13.8825 6.352 13.8825H24.7049C25.0953 13.8825 25.4108 13.5662 25.4108 13.1766V12.4707H5.64612Z" fill="white"/>
</svg>
