<svg width="32" height="32" viewBox="0 0 32 32" fill="none" xmlns="http://www.w3.org/2000/svg">
<path d="M27 24.5556C27 25.9055 25.9055 27 24.5556 27H7.44444C6.0945 27 5 25.9055 5 24.5556V7.44444C5 6.0945 6.0945 5 7.44444 5H24.5556C25.9055 5 27 6.0945 27 7.44444V24.5556Z" fill="#88C9F9"/>
<path d="M16.8195 26.6667C16.3685 27.1104 15.6315 27.1104 15.1811 26.6667L11.1276 22.6768C10.6773 22.2331 10.5581 21.435 10.8624 20.9021L15.4458 9.62894C15.7507 9.09667 16.2494 9.09667 16.5537 9.62894L21.137 20.9021C21.4414 21.4344 21.3222 22.2331 20.8718 22.6762L16.8195 26.6667Z" fill="#DD2E44"/>
<path d="M16 13.9636C16.5799 13.9636 17.2247 13.3818 17.7716 12.6246L16.5537 9.62894C16.2487 9.09667 15.7501 9.09667 15.4457 9.62894L14.2278 12.6246C14.7759 13.3818 15.4201 13.9636 16 13.9636Z" fill="#A0041E"/>
<path d="M19.0556 8.53116C19.0556 9.73139 17.35 12.8774 16.0001 12.8774C14.6501 12.8774 12.9445 9.73139 12.9445 8.53116C12.9445 7.44155 14.6501 6.8335 16.0001 6.8335C17.35 6.8335 19.0556 7.44155 19.0556 8.53116V8.53116Z" fill="#DD2E44"/>
<path d="M5 7.44444V8.82189C6.26744 10.5147 9.14272 13.5586 9.88889 13.5586C11.2388 13.5586 16.6111 6.96106 16.6111 5.61111C16.6111 5 16 5 15.3889 5H7.44444C6.0945 5 5 6.0945 5 7.44444Z" fill="#4CA0D3"/>
<path d="M15.3889 5.61111C15.3889 6.96106 20.7611 13.5586 22.1111 13.5586C22.8572 13.5586 25.7325 10.5147 27 8.82189V7.44444C27 6.0945 25.9055 5 24.5555 5H16.6111C16 5 15.3889 5 15.3889 5.61111Z" fill="#4CA0D3"/>
<path d="M7.4445 5C7.28133 5 7.12306 5.01772 6.96906 5.04828C7.692 6.06089 11.4546 6.83333 16.0001 6.83333C20.5455 6.83333 24.3081 6.06089 25.0311 5.04828C24.8771 5.01772 24.7188 5 24.5556 5H7.4445Z" fill="#226699"/>
</svg>
