<svg width="32" height="32" viewBox="0 0 32 32" fill="none" xmlns="http://www.w3.org/2000/svg">
<path d="M27.8245 17.2855C27.5852 15.1061 27.3351 13.9993 26.6684 12.6659C26.6684 12.6659 28.6685 6.66566 27.3351 4.19887C26.8858 3.36817 22.3989 5.32426 20.6682 6.66566C20.6682 6.66566 18.0014 6.00029 16.0013 6.00029C14.0012 6.00029 11.3344 6.66566 11.3344 6.66566C9.60364 5.32426 5.11676 3.36817 4.66741 4.19887C3.33401 6.66566 5.3341 12.6659 5.3341 12.6659C4.66741 13.9993 4.41739 15.1061 4.17805 17.2855C3.9147 19.6749 4.43873 21.5797 4.66741 21.9997C4.92742 22.4771 6.24548 24.0165 8.0009 25.3332C10.6677 27.3333 14.6679 28 16.0013 28C17.3347 28 21.3349 27.3333 24.0017 25.3332C25.7571 24.0165 27.0751 22.4771 27.3351 21.9997C27.5638 21.5797 28.0878 19.6749 27.8245 17.2855V17.2855Z" fill="#FFCC4D"/>
<path d="M16.0013 16.9995C18.0014 16.9995 18.0014 17.3329 18.0014 17.9996C18.0014 18.6663 17.0013 19.9997 16.0013 19.9997C15.0012 19.9997 14.0012 18.6663 14.0012 17.9996C14.0012 17.3329 14.0005 16.9995 16.0013 16.9995Z" fill="#E75A70"/>
<path d="M5.33411 5.99881C5.63212 5.1041 9.09428 6.66551 9.76098 7.33221C9.76098 7.33221 6.6675 9.3323 6.0008 11.3324C6.0008 11.3324 4.66741 7.9989 5.33411 5.99881ZM26.6684 5.99881C26.3704 5.1041 22.9083 6.66551 22.2416 7.33221C22.2416 7.33221 25.3351 9.3323 26.0018 11.3324C26.0018 11.3324 27.3351 7.9989 26.6684 5.99881Z" fill="#F18F26"/>
<path d="M7.29021 7.73437C7.29021 6.79166 11.3344 8.66574 10.6677 9.33244C10.001 9.99914 9.3343 10.4012 8.66761 11.0679C8.00091 11.7346 7.29021 8.40106 7.29021 7.73437ZM24.7124 7.73437C24.7124 6.79166 20.6682 8.66574 21.3349 9.33244C22.0016 9.99914 22.6683 10.4012 23.335 11.0679C24.0017 11.7346 24.7124 8.40106 24.7124 7.73437V7.73437Z" fill="#FFCC4D"/>
<path d="M4.46807 20.6664C4.3694 20.6664 4.27206 20.6231 4.20606 20.5397C4.09205 20.395 4.11672 20.1857 4.26139 20.0717C4.3694 19.987 6.94152 17.9916 11.3604 18.3349C11.5437 18.3483 11.6811 18.509 11.6671 18.6923C11.6531 18.8756 11.4957 19.0263 11.3091 18.999C7.15353 18.683 4.69875 20.5764 4.67475 20.5957C4.61274 20.6431 4.54007 20.6664 4.46807 20.6664V20.6664ZM10.3804 17.5576C10.3477 17.5576 10.3137 17.5529 10.281 17.5429C7.08753 16.5449 4.45607 17.3116 4.4294 17.3189C4.25273 17.3729 4.06738 17.2722 4.01405 17.0956C3.96138 16.9189 4.06138 16.7335 4.23739 16.6809C4.35273 16.6462 7.09486 15.8495 10.479 16.9062C10.655 16.9615 10.753 17.1482 10.6977 17.3242C10.6537 17.4662 10.5224 17.5576 10.3804 17.5576V17.5576ZM27.5345 20.6664C27.6332 20.6664 27.7305 20.6231 27.7965 20.5397C27.9105 20.395 27.8858 20.1857 27.7412 20.0717C27.6332 19.987 25.061 17.9916 20.6422 18.3349C20.4588 18.3483 20.3215 18.509 20.3355 18.6923C20.3495 18.8756 20.5068 19.0263 20.6935 18.999C24.849 18.683 27.3038 20.5764 27.3278 20.5957C27.3898 20.6431 27.4625 20.6664 27.5345 20.6664V20.6664ZM21.6222 17.5576C21.6549 17.5576 21.6889 17.5529 21.7216 17.5429C24.915 16.5449 27.5465 17.3116 27.5732 17.3189C27.7498 17.3729 27.9352 17.2722 27.9885 17.0956C28.0412 16.9189 27.9412 16.7335 27.7652 16.6809C27.6498 16.6462 24.9077 15.8495 21.5235 16.9062C21.3475 16.9615 21.2495 17.1482 21.3049 17.3242C21.3482 17.4662 21.4802 17.5576 21.6222 17.5576V17.5576Z" fill="#FEE7B8"/>
<path d="M22.6836 20.127C22.0322 20.255 19.3348 21.333 16.0013 21.333C12.6678 21.333 9.97034 20.255 9.31897 20.127C8.66761 19.9996 8.59094 20.8423 8.96229 22.0877C9.33431 23.3331 11.3344 25.9999 16.0013 25.9999C20.6682 25.9999 22.6683 23.3331 23.0403 22.0877C23.4116 20.8423 23.335 19.9996 22.6836 20.127Z" fill="#292F33"/>
<path d="M9.3343 20.6663C9.3343 20.6663 12.6678 21.9997 16.0013 21.9997C19.3348 21.9997 22.6683 20.6663 22.6683 20.6663C22.6683 20.6663 22.3349 22.6664 21.6682 22.6664C21.0015 22.6664 20.6682 21.9997 20.6682 21.9997C20.6682 21.9997 18.0014 23.3331 16.0013 23.3331C14.0012 23.3331 11.3344 21.9997 11.3344 21.9997C11.3344 21.9997 11.0011 22.6664 10.3344 22.6664C9.66765 22.6664 9.3343 20.6663 9.3343 20.6663Z" fill="#F5F8FA"/>
<path d="M22.9456 15.8147C22.9049 15.754 21.9356 14.3326 20.0015 14.3326C18.068 14.3326 17.098 15.754 17.0573 15.8147C16.9673 15.9494 16.988 16.128 17.1047 16.24C17.2207 16.3514 17.402 16.3634 17.5334 16.268C17.5414 16.2614 18.3747 15.666 20.0015 15.666C21.6189 15.666 22.4509 16.2534 22.4696 16.2667C22.5289 16.3107 22.5989 16.3327 22.6683 16.3327C22.7509 16.3327 22.8336 16.302 22.8976 16.2414C23.0156 16.13 23.0356 15.9494 22.9456 15.8147V15.8147ZM14.9452 15.8147C14.9046 15.754 13.9352 14.3326 12.0011 14.3326C10.0677 14.3326 9.09762 15.754 9.05695 15.8147C8.96762 15.9494 8.98762 16.128 9.10429 16.24C9.22096 16.3514 9.4023 16.3634 9.53231 16.268C9.54098 16.2614 10.3737 15.666 12.0011 15.666C13.6185 15.666 14.4505 16.2534 14.4692 16.2667C14.5285 16.3107 14.5986 16.3327 14.6679 16.3327C14.7506 16.3327 14.8332 16.302 14.8972 16.2414C15.0152 16.13 15.0352 15.9494 14.9452 15.8147V15.8147ZM24.669 14.666C24.4657 14.666 24.2663 14.574 24.135 14.3993C22.3743 12.0518 20.0941 11.9998 19.9975 11.9992C19.6308 11.9952 19.3348 11.6952 19.3368 11.3291C19.3388 10.9618 19.6348 10.6658 20.0015 10.6658C20.1241 10.6658 23.0263 10.6991 25.2017 13.5992C25.4231 13.8939 25.3631 14.3119 25.0684 14.5326C24.9484 14.6226 24.8084 14.666 24.669 14.666V14.666ZM7.33354 14.666C7.19487 14.666 7.05419 14.6226 6.93419 14.5326C6.63951 14.3119 6.58017 13.8939 6.80085 13.5992C8.97562 10.6991 11.8784 10.6658 12.0011 10.6658C12.3691 10.6658 12.6678 10.9645 12.6678 11.3325C12.6678 11.6998 12.3711 11.9978 12.0038 11.9992C11.8998 12.0005 9.62431 12.0565 7.8669 14.3993C7.73689 14.574 7.53622 14.666 7.33354 14.666Z" fill="#292F33"/>
<path d="M22.0016 16.666C25.3351 17.9994 28.0019 19.9995 28.0019 23.333C28.0019 25.9998 26.0018 25.9998 26.0018 25.9998C22.0016 25.9998 24.6684 20.6662 22.0016 16.666ZM10.001 16.666C6.66751 17.9994 4.00072 19.9995 4.00072 23.333C4.00072 25.9998 6.00081 25.9998 6.00081 25.9998C10.001 25.9998 7.33421 20.6662 10.001 16.666Z" fill="#5DADEC"/>
</svg>
