<svg width="32" height="32" viewBox="0 0 32 32" fill="none" xmlns="http://www.w3.org/2000/svg">
<path d="M14.8824 8.94116H17.7059V20.9412H14.8824V8.94116Z" fill="#99AAB5"/>
<path d="M10.6471 19.8823C10.6471 20.4668 10.1727 20.9411 9.58824 20.9411H7.4706C6.88613 20.9411 6.41177 20.4668 6.41177 19.8823C6.41177 19.2978 6.88613 18.8235 7.4706 18.8235H9.58824C10.1727 18.8235 10.6471 19.2978 10.6471 19.8823Z" fill="#DA2F47"/>
<path d="M27.5882 25.8824C27.5882 26.6617 26.9558 27.2942 26.1765 27.2942H6.41176C5.63247 27.2942 5 26.6617 5 25.8824V21.6471C5 20.8678 5.63247 20.2354 6.41176 20.2354H26.1765C26.9558 20.2354 27.5882 20.8678 27.5882 21.6471V25.8824Z" fill="#31373D"/>
<path d="M10.6471 26.9411C10.6471 27.5256 10.1734 28 9.58824 28H7.4706C6.88542 28 6.41177 27.5256 6.41177 26.9411C6.41177 26.3567 6.88542 25.8823 7.4706 25.8823H9.58824C10.1734 25.8823 10.6471 26.3567 10.6471 26.9411ZM26.1765 26.9411C26.1765 27.5256 25.7021 28 25.1177 28H23C22.4155 28 21.9412 27.5256 21.9412 26.9411C21.9412 26.3567 22.4155 25.8823 23 25.8823H25.1177C25.7021 25.8823 26.1765 26.3567 26.1765 26.9411Z" fill="#31373D"/>
<path d="M16.2941 11.0588C18.2434 11.0588 19.8235 9.47865 19.8235 7.52941C19.8235 5.58017 18.2434 4 16.2941 4C14.3449 4 12.7647 5.58017 12.7647 7.52941C12.7647 9.47865 14.3449 11.0588 16.2941 11.0588Z" fill="#DA2F47"/>
<path d="M21.2353 20.9412C21.2353 21.7205 20.6028 22.3529 19.8235 22.3529H12.7647C11.9854 22.3529 11.3529 21.7205 11.3529 20.9412V20.2353C11.3529 19.456 14.1031 16 14.8823 16H17.7059C18.4852 16 21.2353 19.456 21.2353 20.2353V20.9412Z" fill="#31373D"/>
<path d="M26.8823 22.3529C26.8823 22.7432 26.5668 23.0587 26.1765 23.0587H6.41175C6.02211 23.0587 5.70587 22.7432 5.70587 22.3529C5.70587 21.9625 6.02211 21.647 6.41175 21.647H26.1765C26.5668 21.647 26.8823 21.9625 26.8823 22.3529Z" fill="#66757F"/>
</svg>
