<svg width="32" height="32" viewBox="0 0 32 32" fill="none" xmlns="http://www.w3.org/2000/svg">
<path d="M13.3659 17.3378C13.3659 20.2934 12.0279 25.7416 4.62751 26.0346C6.38294 23.4423 4 20.2934 4 17.3378C4 14.3822 5.72733 11.9858 8.68293 11.9858C11.6385 11.9858 13.3659 14.3822 13.3659 17.3378Z" fill="#D99E82"/>
<path d="M9.34988 18.396C9.34988 18.3773 9.35189 18.3606 9.35189 18.3412V15.9997H9.71448C11.6746 15.9997 13.3598 17.6722 13.3598 17.6722C13.3598 17.3022 11.9168 14.6617 9.51914 14.6617H9.35189V9.9788C9.35189 9.60952 9.05218 9.30981 8.6829 9.30981C8.31362 9.30981 8.01391 9.60952 8.01391 9.9788V14.6617H7.65199C5.255 14.6617 4.01001 17.3022 4.01001 17.6722C4.01001 17.6722 5.49717 15.9997 7.45664 15.9997H8.01391V17.3658C8.01391 17.6287 8.00053 17.8669 7.9925 18.1151L7.70417 18.109C5.30718 18.0622 4.67632 20.3615 4.66896 20.7308C4.66896 20.7308 5.52326 19.4042 7.48273 19.443L7.90687 19.4517C7.83663 20.1548 7.73294 20.785 7.60382 21.3496C6.44179 21.6032 5.41623 22.5605 5.35602 22.8194C5.35602 22.8194 6.60703 22.4936 7.272 22.5364C6.27521 25.4291 4.62749 26.0346 4.62749 26.0346C4.87568 26.0346 6.92212 25.3836 8.23869 23.0575L8.49224 23.1773C9.04081 23.5044 9.65963 24.6604 9.65963 24.6604C9.78406 24.3955 9.75195 22.711 8.79395 21.8233C9.0087 21.2178 9.17193 20.5314 9.26359 19.7534C11.0772 20.2819 12.0887 22.2012 12.0887 22.2012C12.1744 21.8467 11.593 19.0242 9.34988 18.396V18.396Z" fill="#C1694F"/>
<path d="M14.4864 15.5201C14.4864 19.7608 16.4064 27.58 27.0266 28.0001C24.5065 24.2805 27.9271 19.7615 27.9271 15.5201C27.9271 11.278 25.4478 7.84009 21.2071 7.84009C16.965 7.83942 14.4864 11.278 14.4864 15.5201V15.5201Z" fill="#D99E82"/>
<path d="M22.9297 18.5418C25.7402 18.4856 26.9664 20.3896 26.9664 20.3896C26.9551 19.8591 26.0519 16.5596 22.6106 16.6272L22.0808 16.6379C22.0701 16.288 22.0627 15.9301 22.0627 15.5601V13.9927H22.9652C25.7783 13.9927 27.9117 16.0151 27.9117 16.0151C27.9117 15.4845 26.1268 11.9857 22.6862 11.9857H22.0627V4.96C22.0627 4.43016 21.5891 4 21.0592 4C20.5287 4 20.0558 4.43016 20.0558 4.96V11.9857H20.0069C16.5656 11.9857 14.4958 15.4839 14.4958 16.0151C14.4958 16.0151 16.9149 13.9927 19.728 13.9927H20.0558V16.9597C20.0558 17.0078 20.0584 17.0533 20.0591 17.1008C16.9998 18.1056 16.199 22.0012 16.3201 22.4982C16.3201 22.4982 17.6996 19.8778 20.1809 19.0442C20.3207 20.1976 20.5729 21.2111 20.9014 22.0988C19.6684 23.402 19.633 25.6592 19.8056 26.0271C19.8056 26.0271 20.6913 24.3687 21.48 23.8991L21.6961 23.7974C23.6001 27.0855 26.5242 27.9993 26.8781 27.9993C26.8781 27.9993 24.532 27.1377 23.1151 22.9853C24.0316 22.8749 25.9797 23.3853 25.9797 23.3853C25.892 23.006 24.3473 21.5637 22.6267 21.2445C22.4474 20.4438 22.3029 19.55 22.2039 18.5552L22.9297 18.5418V18.5418Z" fill="#C1694F"/>
</svg>
