<svg width="18" height="20" viewBox="0 0 18 20" fill="none" xmlns="http://www.w3.org/2000/svg">
<path fill-rule="evenodd" clip-rule="evenodd" d="M11.75 7C11.75 9.07107 10.0711 10.75 7.99998 10.75C5.92892 10.75 4.24998 9.07107 4.24998 7C4.24998 4.92893 5.92892 3.25 7.99998 3.25C10.0711 3.25 11.75 4.92893 11.75 7ZM10.25 7C10.25 8.24264 9.24263 9.25 7.99998 9.25C6.75734 9.25 5.74998 8.24264 5.74998 7C5.74998 5.75736 6.75734 4.75 7.99998 4.75C9.24263 4.75 10.25 5.75736 10.25 7Z" fill="#99A2AD"/>
<path fill-rule="evenodd" clip-rule="evenodd" d="M8 11.5C6.03684 11.5 4.5154 11.751 3.45957 12.3045C2.9203 12.5872 2.48387 12.9586 2.18486 13.4308C1.88409 13.9059 1.75 14.4396 1.75 15V15.25C1.74999 16.2165 2.5335 17 3.5 17H12.5C13.4668 17 14.25 16.2158 14.25 15.2496V15C14.25 14.4396 14.1159 13.9059 13.8151 13.4308C13.5161 12.9586 13.0797 12.5872 12.5404 12.3045C11.4846 11.751 9.96315 11.5 8 11.5ZM3.25 15C3.25 14.6854 3.32267 14.4378 3.45221 14.2332C3.58352 14.0258 3.80098 13.8191 4.15596 13.633C4.88864 13.249 6.1172 13 8 13C9.8828 13 11.1114 13.249 11.844 13.633C12.199 13.8191 12.4165 14.0258 12.5478 14.2332C12.6773 14.4378 12.75 14.6854 12.75 15V15.2496C12.75 15.3881 12.6377 15.5 12.5 15.5H3.5C3.36193 15.5 3.25 15.3881 3.25 15.25L3.25 15Z" fill="#99A2AD"/>
</svg>
