<svg width="80" height="72" viewBox="0 0 80 72" fill="none" xmlns="http://www.w3.org/2000/svg">
<circle cx="40" cy="36" r="32" fill="#EBEDF0" fill-opacity="0.7"/>
<circle cx="40" cy="36" r="31.75" stroke="#818C99" stroke-opacity="0.5" stroke-width="0.5"/>
<path d="M37.3659 37.3378C37.3659 40.2934 36.0279 45.7416 28.6275 46.0346C30.3829 43.4423 28 40.2934 28 37.3378C28 34.3822 29.7273 31.9858 32.6829 31.9858C35.6385 31.9858 37.3659 34.3822 37.3659 37.3378Z" fill="#D99E82"/>
<path d="M33.3499 38.396C33.3499 38.3773 33.3519 38.3606 33.3519 38.3412V35.9997H33.7145C35.6746 35.9997 37.3598 37.6722 37.3598 37.6722C37.3598 37.3022 35.9168 34.6617 33.5191 34.6617H33.3519V29.9788C33.3519 29.6095 33.0522 29.3098 32.6829 29.3098C32.3136 29.3098 32.0139 29.6095 32.0139 29.9788V34.6617H31.652C29.255 34.6617 28.01 37.3022 28.01 37.6722C28.01 37.6722 29.4972 35.9997 31.4566 35.9997H32.0139V37.3658C32.0139 37.6287 32.0005 37.8669 31.9925 38.1151L31.7042 38.109C29.3072 38.0622 28.6763 40.3615 28.669 40.7308C28.669 40.7308 29.5233 39.4042 31.4827 39.443L31.9069 39.4517C31.8366 40.1548 31.7329 40.785 31.6038 41.3496C30.4418 41.6032 29.4162 42.5605 29.356 42.8194C29.356 42.8194 30.607 42.4936 31.272 42.5364C30.2752 45.4291 28.6275 46.0346 28.6275 46.0346C28.8757 46.0346 30.9221 45.3836 32.2387 43.0575L32.4922 43.1773C33.0408 43.5044 33.6596 44.6604 33.6596 44.6604C33.7841 44.3955 33.7519 42.711 32.794 41.8233C33.0087 41.2178 33.1719 40.5314 33.2636 39.7534C35.0772 40.2819 36.0887 42.2012 36.0887 42.2012C36.1744 41.8467 35.593 39.0242 33.3499 38.396V38.396Z" fill="#C1694F"/>
<path d="M38.4864 35.5201C38.4864 39.7608 40.4064 47.58 51.0266 48.0001C48.5065 44.2805 51.9271 39.7615 51.9271 35.5201C51.9271 31.278 49.4478 27.8401 45.2071 27.8401C40.965 27.8394 38.4864 31.278 38.4864 35.5201V35.5201Z" fill="#D99E82"/>
<path d="M46.9297 38.5418C49.7402 38.4856 50.9664 40.3896 50.9664 40.3896C50.9551 39.8591 50.0519 36.5596 46.6106 36.6272L46.0808 36.6379C46.0701 36.288 46.0627 35.9301 46.0627 35.5601V33.9927H46.9652C49.7783 33.9927 51.9117 36.0151 51.9117 36.0151C51.9117 35.4845 50.1268 31.9857 46.6862 31.9857H46.0627V24.96C46.0627 24.4302 45.5891 24 45.0592 24C44.5287 24 44.0558 24.4302 44.0558 24.96V31.9857H44.0069C40.5656 31.9857 38.4958 35.4839 38.4958 36.0151C38.4958 36.0151 40.9149 33.9927 43.728 33.9927H44.0558V36.9597C44.0558 37.0078 44.0584 37.0533 44.0591 37.1008C40.9998 38.1056 40.199 42.0012 40.3201 42.4982C40.3201 42.4982 41.6996 39.8778 44.1809 39.0442C44.3207 40.1976 44.5729 41.2111 44.9014 42.0988C43.6684 43.402 43.633 45.6592 43.8056 46.0271C43.8056 46.0271 44.6913 44.3687 45.48 43.8991L45.6961 43.7974C47.6001 47.0855 50.5242 47.9993 50.8781 47.9993C50.8781 47.9993 48.532 47.1377 47.1151 42.9853C48.0316 42.8749 49.9797 43.3853 49.9797 43.3853C49.892 43.006 48.3473 41.5637 46.6267 41.2445C46.4474 40.4438 46.3029 39.55 46.2039 38.5552L46.9297 38.5418V38.5418Z" fill="#C1694F"/>
<g clip-path="url(#clip0)">
<g filter="url(#filter0_d)">
<path fill-rule="evenodd" clip-rule="evenodd" d="M18 24C23.5228 24 28 19.5228 28 14C28 8.47715 23.5228 4 18 4C12.4772 4 8 8.47715 8 14C8 19.5228 12.4772 24 18 24Z" fill="white"/>
<path fill-rule="evenodd" clip-rule="evenodd" d="M18 24C23.5228 24 28 19.5228 28 14C28 8.47715 23.5228 4 18 4C12.4772 4 8 8.47715 8 14C8 19.5228 12.4772 24 18 24Z" stroke="black" stroke-opacity="0.05" stroke-width="0.5"/>
</g>
<path d="M26 14C26 18.4182 22.4182 22 18 22C13.5818 22 10 18.4182 10 14C10 9.58178 13.5818 6 18 6C22.4182 6 26 9.58178 26 14Z" fill="#FFCC4D"/>
<path d="M22.5831 12.9387C22.5053 12.8756 22.3938 12.8733 22.312 12.9325C22.3067 12.9365 21.7516 13.3333 20.6667 13.3333C19.5822 13.3333 19.0267 12.9365 19.0222 12.9333C18.9409 12.8725 18.8289 12.8742 18.7507 12.9373C18.6716 13.0005 18.6449 13.1089 18.6858 13.2013C18.7124 13.2613 19.3524 14.6667 20.6667 14.6667C21.9813 14.6667 22.6209 13.2613 22.6476 13.2013C22.6884 13.1093 22.6618 13.0018 22.5831 12.9387ZM16.9787 12.9325C16.9733 12.9365 16.4187 13.3333 15.3333 13.3333C14.2484 13.3333 13.6933 12.9365 13.6889 12.9333C13.6076 12.8725 13.496 12.8742 13.4173 12.9373C13.3382 13.0005 13.3116 13.1089 13.3524 13.2013C13.3791 13.2613 14.0191 14.6667 15.3333 14.6667C16.648 14.6667 17.2876 13.2613 17.3142 13.2013C17.3551 13.1093 17.3284 13.0018 17.2498 12.9387C17.1716 12.8751 17.0596 12.8733 16.9787 12.9325ZM22.8893 11.7778C22.7538 11.7778 22.6209 11.7165 22.5333 11.6C21.3813 10.064 19.4396 10.432 19.4204 10.4356C19.1773 10.4836 18.9458 10.3276 18.8973 10.0871C18.8493 9.84668 19.0053 9.61246 19.2458 9.56401C19.3484 9.54312 21.76 9.08757 23.244 11.0662C23.3916 11.2627 23.3516 11.5413 23.1551 11.6885C23.0756 11.7489 22.9822 11.7778 22.8893 11.7778V11.7778ZM13.1107 11.7778C13.0182 11.7778 12.9244 11.7489 12.8444 11.6889C12.648 11.5418 12.6084 11.2631 12.7556 11.0667C14.2396 9.08712 16.6516 9.54401 16.7538 9.56446C16.9947 9.61246 17.1507 9.84668 17.1022 10.0876C17.0542 10.3276 16.8204 10.4836 16.5804 10.4365C16.4978 10.4209 14.6089 10.0773 13.4667 11.6C13.3796 11.7165 13.2458 11.7778 13.1107 11.7778V11.7778ZM20.3351 16.4787C20.2516 16.4293 20.1431 16.4405 20.0698 16.5053C20.0653 16.5089 19.6196 16.8889 18 16.8889C16.3818 16.8889 15.9351 16.5093 15.9351 16.5093C15.8644 16.4382 15.7556 16.4249 15.6684 16.4729C15.5818 16.5222 15.5382 16.6236 15.5627 16.7205C15.5671 16.74 16.0711 18.6667 18 18.6667C19.9289 18.6667 20.4329 16.74 20.4378 16.7205C20.4613 16.6258 20.4182 16.5289 20.3351 16.4787V16.4787Z" fill="#664500"/>
</g>
<defs>
<filter id="filter0_d" x="3.75" y="1.75" width="28.5" height="28.5" filterUnits="userSpaceOnUse" color-interpolation-filters="sRGB">
<feFlood flood-opacity="0" result="BackgroundImageFix"/>
<feColorMatrix in="SourceAlpha" type="matrix" values="0 0 0 0 0 0 0 0 0 0 0 0 0 0 0 0 0 0 127 0"/>
<feOffset dy="2"/>
<feGaussianBlur stdDeviation="2"/>
<feColorMatrix type="matrix" values="0 0 0 0 0 0 0 0 0 0 0 0 0 0 0 0 0 0 0.08 0"/>
<feBlend mode="normal" in2="BackgroundImageFix" result="effect1_dropShadow"/>
<feBlend mode="normal" in="SourceGraphic" in2="effect1_dropShadow" result="shape"/>
</filter>
<clipPath id="clip0">
<rect width="24" height="24" fill="white" transform="translate(6 2)"/>
</clipPath>
</defs>
</svg>
