<svg width="80" height="72" viewBox="0 0 80 72" fill="none" xmlns="http://www.w3.org/2000/svg">
<circle cx="40" cy="36" r="32" fill="#EBEDF0" fill-opacity="0.7"/>
<circle cx="40" cy="36" r="31.75" stroke="#818C99" stroke-opacity="0.5" stroke-width="0.5"/>
<path d="M48.9174 31.0588H30.1176C28.948 31.0588 28 32.0068 28 33.1765C28 34.3461 28.948 35.2941 30.1176 35.2941C30.2461 35.2941 30.3696 35.2779 30.4918 35.2567L30.4805 35.2941L30.9301 45.1793C31 46.7308 32.3285 48 33.8814 48H45.1755C46.7285 48 48.0569 46.7308 48.1275 45.1793L48.5765 35.2941L48.5659 35.2588C48.6809 35.2779 48.7967 35.2941 48.9174 35.2941C50.0871 35.2941 51.0351 34.3461 51.0351 33.1765C51.0351 32.0068 50.0864 31.0588 48.9174 31.0588V31.0588Z" fill="#E1E8ED"/>
<path d="M47.0588 35.2942V47.2864C47.668 46.7683 48.0781 46.0187 48.112 45.1787L48.592 35.2942H47.0588ZM42.8236 35.2942H44.9412V48.0001H42.8236V35.2942ZM38.5883 48.0001V35.2942H40.7059V48.0001H38.5883ZM34.353 35.2942H36.4706V48.0001H34.353V35.2942ZM30.465 35.2942L30.945 45.1787C30.9831 46.126 31.4927 46.9631 32.2353 47.4756V35.2942H30.465Z" fill="#DA2F47"/>
<path opacity="0.6" d="M30.465 35.2942L30.5334 36.706H48.5228L48.592 35.2942H30.465Z" fill="#99AAB5"/>
<path d="M48.6548 31.1082C48.6852 30.9784 48.7049 30.8449 48.7049 30.7059C48.7049 30.2301 48.5144 29.7995 48.208 29.4826C48.5059 29.2948 48.7049 28.9659 48.7049 28.5882C48.7049 28.0031 48.2306 27.5294 47.6461 27.5294C47.5071 27.5294 47.3744 27.5576 47.2522 27.6071C47.1541 27.2449 46.8718 26.9626 46.5096 26.8645C46.5591 26.7424 46.5873 26.6104 46.5873 26.4706C46.5873 25.8854 46.1129 25.4118 45.5285 25.4118C45.3936 25.4118 45.2659 25.4393 45.1473 25.4852C45.0125 24.6445 44.2896 24 43.4108 24C42.436 24 41.6461 24.7899 41.6461 25.7647C41.6461 25.8967 41.6631 26.0245 41.6906 26.1487C41.2388 26.2285 40.8506 26.4798 40.5873 26.8327C40.2654 26.4014 39.7558 26.1176 39.1755 26.1176C38.2007 26.1176 37.4108 26.9075 37.4108 27.8824L37.4115 27.8908C37.1969 27.7285 36.9478 27.612 36.6725 27.5619C36.5214 26.7402 35.8049 26.1176 34.9402 26.1176C34.0734 26.1176 33.3555 26.7438 33.2073 27.5682C33.0809 27.5485 32.9546 27.5294 32.8226 27.5294C31.4581 27.5294 30.352 28.6355 30.352 30C30.352 30.3847 30.4473 30.744 30.604 31.0687C30.0675 31.1202 29.6461 31.5671 29.6461 32.1176C29.6461 32.7028 30.1205 33.1765 30.7049 33.1765H48.352C48.9365 33.1765 49.4108 32.7028 49.4108 32.1176C49.4108 31.6391 49.0911 31.2388 48.6548 31.1082Z" fill="#FFD983"/>
<path d="M46.5873 29.6471C46.9771 29.6471 47.2932 29.3311 47.2932 28.9412C47.2932 28.5514 46.9771 28.2354 46.5873 28.2354C46.1974 28.2354 45.8814 28.5514 45.8814 28.9412C45.8814 29.3311 46.1974 29.6471 46.5873 29.6471Z" fill="#FFAC33"/>
<path d="M44.1167 28.2353C44.7015 28.2353 45.1755 27.7613 45.1755 27.1765C45.1755 26.5917 44.7015 26.1177 44.1167 26.1177C43.5319 26.1177 43.0579 26.5917 43.0579 27.1765C43.0579 27.7613 43.5319 28.2353 44.1167 28.2353Z" fill="#FFAC33"/>
<path d="M35.2932 28.9411C35.683 28.9411 35.999 28.625 35.999 28.2352C35.999 27.8453 35.683 27.5293 35.2932 27.5293C34.9033 27.5293 34.5873 27.8453 34.5873 28.2352C34.5873 28.625 34.9033 28.9411 35.2932 28.9411Z" fill="#FFAC33"/>
<path d="M48.7049 32.1177C48.7049 31.5332 48.2306 31.0589 47.6461 31.0589C47.1816 31.0589 46.7906 31.3603 46.648 31.7768C46.6275 31.7754 46.6092 31.7648 46.5873 31.7648C46.1976 31.7648 45.8814 32.081 45.8814 32.4706H48.64C48.6795 32.3598 48.7049 32.2419 48.7049 32.1177ZM33.5284 31.7648C33.6682 31.7648 33.8002 31.793 33.9223 31.8424C34.0437 31.3921 34.4517 31.0589 34.9402 31.0589C35.5247 31.0589 35.999 31.5325 35.999 32.1177C35.999 32.2419 35.9736 32.3598 35.9341 32.4706H38.8875C38.848 32.3598 38.8226 32.2419 38.8226 32.1177C38.8226 31.5325 39.2969 31.0589 39.8814 31.0589C40.0487 31.0589 40.2054 31.1012 40.3459 31.1704C40.2767 31.0299 40.2343 30.8732 40.2343 30.7059C40.2343 30.1208 40.7087 29.6471 41.2932 29.6471C41.8776 29.6471 42.352 30.1208 42.352 30.7059C42.352 30.8457 42.3237 30.9777 42.2743 31.0998C42.7247 31.2212 43.0579 31.6285 43.0579 32.1177C43.0579 32.2419 43.0324 32.3598 42.9929 32.4706H45.088L44.6884 32.1177C44.9849 31.8586 45.1755 31.4831 45.1755 31.0589C45.1755 30.2796 44.543 29.6471 43.7637 29.6471C43.4969 29.6471 43.2499 29.7255 43.0367 29.8546C43.0473 29.7862 43.0579 29.7184 43.0579 29.6471C43.0579 28.8678 42.4254 28.2354 41.6461 28.2354C41.0757 28.2354 40.5866 28.5756 40.3642 29.0626C40.2188 28.9878 40.0564 28.9412 39.8814 28.9412C39.2969 28.9412 38.8226 29.4156 38.8226 30.0001C38.8226 30.1398 38.8508 30.2718 38.9002 30.3939C38.4499 30.5161 38.1167 30.9234 38.1167 31.4118C38.1167 31.5516 38.1449 31.6836 38.1943 31.8057C38.032 31.8495 37.8852 31.9306 37.7637 32.0401C37.576 31.8706 37.3303 31.7648 37.0579 31.7648C36.8906 31.7648 36.7339 31.8071 36.5927 31.877C36.6626 31.7358 36.7049 31.5791 36.7049 31.4118C36.7049 30.8274 36.2306 30.353 35.6461 30.353C35.5063 30.353 35.3743 30.3812 35.2522 30.4306C35.1308 29.9803 34.7228 29.6471 34.2343 29.6471C33.6499 29.6471 33.1755 30.1215 33.1755 30.7059C33.1755 30.8457 33.2037 30.9777 33.2532 31.0998C33.0908 31.1436 32.944 31.2248 32.8226 31.3342C32.6348 31.1648 32.3892 31.0589 32.1167 31.0589C31.5322 31.0589 31.0579 31.5332 31.0579 32.1177C31.0579 32.2419 31.0833 32.3598 31.1228 32.4706H32.5346C32.6807 32.0605 33.0682 31.7648 33.5284 31.7648V31.7648Z" fill="#FFAC33"/>
<path d="M29.6461 32.4707V33.1766C29.6461 33.5662 29.9624 33.8825 30.352 33.8825H48.7049C49.0953 33.8825 49.4108 33.5662 49.4108 33.1766V32.4707H29.6461Z" fill="white"/>
<g clip-path="url(#clip0)">
<g filter="url(#filter0_d)">
<path fill-rule="evenodd" clip-rule="evenodd" d="M18 24C23.5228 24 28 19.5228 28 14C28 8.47715 23.5228 4 18 4C12.4772 4 8 8.47715 8 14C8 19.5228 12.4772 24 18 24Z" fill="white"/>
<path fill-rule="evenodd" clip-rule="evenodd" d="M18 24C23.5228 24 28 19.5228 28 14C28 8.47715 23.5228 4 18 4C12.4772 4 8 8.47715 8 14C8 19.5228 12.4772 24 18 24Z" stroke="black" stroke-opacity="0.05" stroke-width="0.5"/>
</g>
<path d="M26 14C26 18.4182 22.4182 22 18 22C13.5822 22 10 18.4182 10 14C10 9.58222 13.5822 6 18 6C22.4182 6 26 9.58222 26 14Z" fill="#FFCC4D"/>
<path d="M15.1111 14C15.7248 14 16.2222 12.9056 16.2222 11.5555C16.2222 10.2055 15.7248 9.11108 15.1111 9.11108C14.4975 9.11108 14 10.2055 14 11.5555C14 12.9056 14.4975 14 15.1111 14Z" fill="#664500"/>
<path d="M20.8889 14C21.5025 14 22 12.9056 22 11.5555C22 10.2055 21.5025 9.11108 20.8889 9.11108C20.2752 9.11108 19.7778 10.2055 19.7778 11.5555C19.7778 12.9056 20.2752 14 20.8889 14Z" fill="#664500"/>
<path d="M18 15.7778C16.3898 15.7778 15.3213 15.5903 14 15.3334C13.6982 15.2752 13.1111 15.3334 13.1111 16.2223C13.1111 18.0001 15.1533 20.2223 18 20.2223C20.8462 20.2223 22.8889 18.0001 22.8889 16.2223C22.8889 15.3334 22.3018 15.2747 22 15.3334C20.6786 15.5903 19.6102 15.7778 18 15.7778Z" fill="#664500"/>
<path d="M14 16.2222C14 16.2222 15.3333 16.6666 18 16.6666C20.6667 16.6666 22 16.2222 22 16.2222C22 16.2222 21.1111 17.9999 18 17.9999C14.8889 17.9999 14 16.2222 14 16.2222Z" fill="white"/>
</g>
<defs>
<filter id="filter0_d" x="3.75" y="1.75" width="28.5" height="28.5" filterUnits="userSpaceOnUse" color-interpolation-filters="sRGB">
<feFlood flood-opacity="0" result="BackgroundImageFix"/>
<feColorMatrix in="SourceAlpha" type="matrix" values="0 0 0 0 0 0 0 0 0 0 0 0 0 0 0 0 0 0 127 0"/>
<feOffset dy="2"/>
<feGaussianBlur stdDeviation="2"/>
<feColorMatrix type="matrix" values="0 0 0 0 0 0 0 0 0 0 0 0 0 0 0 0 0 0 0.08 0"/>
<feBlend mode="normal" in2="BackgroundImageFix" result="effect1_dropShadow"/>
<feBlend mode="normal" in="SourceGraphic" in2="effect1_dropShadow" result="shape"/>
</filter>
<clipPath id="clip0">
<rect width="24" height="24" fill="white" transform="translate(6 2)"/>
</clipPath>
</defs>
</svg>
