<svg width="80" height="72" viewBox="0 0 80 72" fill="none" xmlns="http://www.w3.org/2000/svg">
<circle cx="40" cy="36" r="32" fill="#EBEDF0" fill-opacity="0.7"/>
<circle cx="40" cy="36" r="31.75" stroke="#818C99" stroke-opacity="0.5" stroke-width="0.5"/>
<path d="M53.2 42.4768C52.8664 41.7064 52.4832 40.8704 51.6 40.8704H50.8C51.6832 40.8704 52.4 40.1512 52.4 39.264V25.6064C52.4 24.7192 51.6832 24 50.8 24H30C29.1168 24 28.4 24.7192 28.4 25.6064V39.264C28.4 40.1512 29.1168 40.8704 30 40.8704H29.2C28.3168 40.8704 27.8664 41.6736 27.6 42.4768L26 46.3928C26 47.2808 26.7168 48 27.6 48H53.2C54.0832 48 54.8 47.2808 54.8 46.3936L53.2 42.4768V42.4768Z" fill="#CCD6DD"/>
<path d="M26.0064 46.46L26.0112 46.5056L26.1472 47.0592C26.4 47.6128 26.9536 48 27.6 48H53.2C54.0608 48 54.7576 47.316 54.7936 46.46H26.0064Z" fill="#9AAAB4"/>
<path d="M50.8 38.46C50.8 38.904 50.4424 39.2632 50 39.2632H30.8C30.3584 39.2632 30 38.904 30 38.46V26.4104C30 25.9664 30.3584 25.6072 30.8 25.6072H50C50.4424 25.6072 50.8 25.9672 50.8 26.4104V38.46Z" fill="#5DADEC"/>
<path d="M52.3248 44.0336L51.7168 42.2936C51.5256 41.9256 51.2088 41.624 50.7664 41.624H30.088C29.6464 41.624 29.3632 41.9504 29.1632 42.4528L28.6128 44.0344C28.4376 44.5112 28.9712 44.8376 29.4128 44.8376H35.4752C35.4752 44.8376 36.2248 44.8 36.3576 44.3512C36.5112 43.8328 36.6896 43.052 36.728 42.9144C36.7872 42.7032 37.0384 42.4896 37.4128 42.4896H44.2752C44.6752 42.4896 44.872 42.692 44.924 42.9424C44.9576 43.1056 45.1736 43.8552 45.2744 44.368C45.3632 44.8248 46.2512 44.8368 46.2512 44.8368H51.5264C51.9672 44.8368 52.5 44.46 52.3248 44.0336V44.0336Z" fill="#AEBBC1"/>
<path d="M43.9 45.6904H37.6752C37.3752 45.6904 37.2448 45.416 37.288 45.1504C37.3312 44.8856 37.5752 43.716 37.5944 43.58C37.6128 43.4432 37.8136 43.28 38.0136 43.28H43.6256C43.8632 43.28 44.0176 43.4104 44.0656 43.6712C44.1128 43.9328 44.3072 44.984 44.3224 45.224C44.3376 45.4648 44.1872 45.6904 43.9 45.6904V45.6904Z" fill="#9AAAB4"/>
<g clip-path="url(#clip0)">
<g filter="url(#filter0_d)">
<path fill-rule="evenodd" clip-rule="evenodd" d="M18 24C23.5228 24 28 19.5228 28 14C28 8.47715 23.5228 4 18 4C12.4772 4 8 8.47715 8 14C8 19.5228 12.4772 24 18 24Z" fill="white"/>
<path fill-rule="evenodd" clip-rule="evenodd" d="M18 24C23.5228 24 28 19.5228 28 14C28 8.47715 23.5228 4 18 4C12.4772 4 8 8.47715 8 14C8 19.5228 12.4772 24 18 24Z" stroke="black" stroke-opacity="0.05" stroke-width="0.5"/>
</g>
<path d="M18 22C22.4183 22 26 18.4183 26 14C26 9.58172 22.4183 6 18 6C13.5817 6 10 9.58172 10 14C10 18.4183 13.5817 22 18 22Z" fill="#FFCC4D"/>
<path d="M21.3266 18.1684C21.3066 18.0888 20.8075 16.2222 18 16.2222C15.192 16.2222 14.6933 18.0888 14.6733 18.1684C14.6489 18.2648 14.6924 18.3648 14.7786 18.4146C14.8653 18.4639 14.9738 18.4493 15.0453 18.3804C15.0538 18.3719 15.9138 17.5555 18 17.5555C20.0862 17.5555 20.9466 18.3719 20.9546 18.3799C20.9973 18.4222 21.0542 18.4444 21.1111 18.4444C21.1484 18.4444 21.1862 18.4351 21.2204 18.4159C21.3075 18.3662 21.3511 18.2653 21.3266 18.1684Z" fill="#664500"/>
<path d="M15.3333 13.5554C15.947 13.5554 16.4445 12.859 16.4445 11.9999C16.4445 11.1408 15.947 10.4443 15.3333 10.4443C14.7197 10.4443 14.2222 11.1408 14.2222 11.9999C14.2222 12.859 14.7197 13.5554 15.3333 13.5554Z" fill="#664500"/>
<path d="M20.6667 13.5554C21.2803 13.5554 21.7778 12.859 21.7778 11.9999C21.7778 11.1408 21.2803 10.4443 20.6667 10.4443C20.053 10.4443 19.5555 11.1408 19.5555 11.9999C19.5555 12.859 20.053 13.5554 20.6667 13.5554Z" fill="#664500"/>
</g>
<defs>
<filter id="filter0_d" x="3.75" y="1.75" width="28.5" height="28.5" filterUnits="userSpaceOnUse" color-interpolation-filters="sRGB">
<feFlood flood-opacity="0" result="BackgroundImageFix"/>
<feColorMatrix in="SourceAlpha" type="matrix" values="0 0 0 0 0 0 0 0 0 0 0 0 0 0 0 0 0 0 127 0"/>
<feOffset dy="2"/>
<feGaussianBlur stdDeviation="2"/>
<feColorMatrix type="matrix" values="0 0 0 0 0 0 0 0 0 0 0 0 0 0 0 0 0 0 0.08 0"/>
<feBlend mode="normal" in2="BackgroundImageFix" result="effect1_dropShadow"/>
<feBlend mode="normal" in="SourceGraphic" in2="effect1_dropShadow" result="shape"/>
</filter>
<clipPath id="clip0">
<rect width="24" height="24" fill="white" transform="translate(6 2)"/>
</clipPath>
</defs>
</svg>
