<svg width="80" height="72" viewBox="0 0 80 72" fill="none" xmlns="http://www.w3.org/2000/svg">
<circle cx="40" cy="36" r="32" fill="#EBEDF0" fill-opacity="0.7"/>
<circle cx="40" cy="36" r="31.75" stroke="#818C99" stroke-opacity="0.5" stroke-width="0.5"/>
<g clip-path="url(#clip0)">
<g filter="url(#filter0_d)">
<path fill-rule="evenodd" clip-rule="evenodd" d="M18 24C23.5228 24 28 19.5228 28 14C28 8.47715 23.5228 4 18 4C12.4772 4 8 8.47715 8 14C8 19.5228 12.4772 24 18 24Z" fill="white"/>
<path fill-rule="evenodd" clip-rule="evenodd" d="M18 24C23.5228 24 28 19.5228 28 14C28 8.47715 23.5228 4 18 4C12.4772 4 8 8.47715 8 14C8 19.5228 12.4772 24 18 24Z" stroke="black" stroke-opacity="0.05" stroke-width="0.5"/>
</g>
<path d="M26 14C26 18.4182 22.4182 22 18 22C13.5822 22 10 18.4182 10 14C10 9.58222 13.5822 6 18 6C22.4182 6 26 9.58222 26 14Z" fill="#FFCC4D"/>
<path d="M16.8698 13.0288C16.8431 12.9688 16.2036 11.5635 14.8889 11.5635C13.5747 11.5635 12.9347 12.9688 12.908 13.0288C12.8671 13.1208 12.8938 13.2284 12.972 13.2915C13.0507 13.355 13.1618 13.3568 13.2431 13.2977C13.2489 13.2937 13.804 12.8968 14.8889 12.8968C15.9671 12.8968 16.5218 13.2884 16.5342 13.2973C16.5733 13.3266 16.62 13.3413 16.6667 13.3413C16.7156 13.3413 16.7649 13.3248 16.8049 13.2928C16.8845 13.2297 16.9107 13.1213 16.8698 13.0288Z" fill="#66471B"/>
<path d="M23.7778 12C23.7778 13.5955 22.4844 14.8889 20.8889 14.8889C19.2933 14.8889 18 13.5955 18 12C18 10.4044 19.2933 9.11108 20.8889 9.11108C22.4844 9.11108 23.7778 10.4044 23.7778 12Z" fill="#F5F8FA"/>
<path d="M20.8889 13.1111C21.5025 13.1111 22 12.6137 22 12C22 11.3864 21.5025 10.8889 20.8889 10.8889C20.2752 10.8889 19.7778 11.3864 19.7778 12C19.7778 12.6137 20.2752 13.1111 20.8889 13.1111Z" fill="#292F33"/>
<path d="M13.1111 15.4497C13.1111 17.2115 15.1538 19.4497 18 19.4497C20.8462 19.4497 22.8889 17.2275 22.8889 15.4497C22.8889 15.4497 18.2964 16.6746 13.1111 15.4497Z" fill="#66471B"/>
<path d="M18.2422 16.4907L17.7573 16.4885C16.328 16.4556 15.3333 16.2236 15.3333 16.2236V19.3174C15.3333 20.6507 16.2222 21.9841 18 21.9841C19.7778 21.9841 20.6667 20.6507 20.6667 19.3174V16.2419C19.8124 16.417 18.9836 16.4827 18.2422 16.4907V16.4907Z" fill="#E8596E"/>
<path d="M18 20.1525C18.1338 20.1525 18.2422 20.0441 18.2422 19.9103V16.4907L17.7573 16.4885V19.9103C17.7578 20.0441 17.8662 20.1525 18 20.1525V20.1525Z" fill="#DD2F45"/>
</g>
<path d="M51.8245 37.2855C51.5852 35.1061 51.3351 33.9993 50.6684 32.6659C50.6684 32.6659 52.6685 26.6657 51.3351 24.1989C50.8858 23.3682 46.3989 25.3243 44.6682 26.6657C44.6682 26.6657 42.0014 26.0003 40.0013 26.0003C38.0012 26.0003 35.3344 26.6657 35.3344 26.6657C33.6036 25.3243 29.1168 23.3682 28.6674 24.1989C27.334 26.6657 29.3341 32.6659 29.3341 32.6659C28.6674 33.9993 28.4174 35.1061 28.178 37.2855C27.9147 39.6749 28.4387 41.5797 28.6674 41.9997C28.9274 42.4771 30.2455 44.0165 32.0009 45.3332C34.6677 47.3333 38.6679 48 40.0013 48C41.3347 48 45.3349 47.3333 48.0017 45.3332C49.7571 44.0165 51.0751 42.4771 51.3351 41.9997C51.5638 41.5797 52.0878 39.6749 51.8245 37.2855V37.2855Z" fill="#FFCC4D"/>
<path d="M40.0013 36.9995C42.0014 36.9995 42.0014 37.3329 42.0014 37.9996C42.0014 38.6663 41.0013 39.9997 40.0013 39.9997C39.0012 39.9997 38.0012 38.6663 38.0012 37.9996C38.0012 37.3329 38.0005 36.9995 40.0013 36.9995Z" fill="#E75A70"/>
<path d="M29.3341 25.9988C29.6321 25.1041 33.0943 26.6655 33.761 27.3322C33.761 27.3322 30.6675 29.3323 30.0008 31.3324C30.0008 31.3324 28.6674 27.9989 29.3341 25.9988ZM50.6684 25.9988C50.3704 25.1041 46.9083 26.6655 46.2416 27.3322C46.2416 27.3322 49.3351 29.3323 50.0018 31.3324C50.0018 31.3324 51.3351 27.9989 50.6684 25.9988Z" fill="#F18F26"/>
<path d="M31.2902 27.7344C31.2902 26.7917 35.3344 28.6657 34.6677 29.3324C34.001 29.9991 33.3343 30.4012 32.6676 31.0679C32.0009 31.7346 31.2902 28.4011 31.2902 27.7344ZM48.7124 27.7344C48.7124 26.7917 44.6682 28.6657 45.3349 29.3324C46.0016 29.9991 46.6683 30.4012 47.335 31.0679C48.0017 31.7346 48.7124 28.4011 48.7124 27.7344V27.7344Z" fill="#FFCC4D"/>
<path d="M28.4681 40.6664C28.3694 40.6664 28.2721 40.6231 28.2061 40.5397C28.0921 40.395 28.1167 40.1857 28.2614 40.0717C28.3694 39.987 30.9415 37.9916 35.3604 38.3349C35.5437 38.3483 35.6811 38.509 35.6671 38.6923C35.6531 38.8756 35.4957 39.0263 35.3091 38.999C31.1535 38.683 28.6987 40.5764 28.6747 40.5957C28.6127 40.6431 28.5401 40.6664 28.4681 40.6664V40.6664ZM34.3804 37.5576C34.3477 37.5576 34.3137 37.5529 34.281 37.5429C31.0875 36.5449 28.4561 37.3116 28.4294 37.3189C28.2527 37.3729 28.0674 37.2722 28.014 37.0956C27.9614 36.9189 28.0614 36.7335 28.2374 36.6809C28.3527 36.6462 31.0949 35.8495 34.479 36.9062C34.655 36.9615 34.753 37.1482 34.6977 37.3242C34.6537 37.4662 34.5224 37.5576 34.3804 37.5576V37.5576ZM51.5345 40.6664C51.6332 40.6664 51.7305 40.6231 51.7965 40.5397C51.9105 40.395 51.8858 40.1857 51.7412 40.0717C51.6332 39.987 49.061 37.9916 44.6422 38.3349C44.4588 38.3483 44.3215 38.509 44.3355 38.6923C44.3495 38.8756 44.5068 39.0263 44.6935 38.999C48.849 38.683 51.3038 40.5764 51.3278 40.5957C51.3898 40.6431 51.4625 40.6664 51.5345 40.6664V40.6664ZM45.6222 37.5576C45.6549 37.5576 45.6889 37.5529 45.7216 37.5429C48.915 36.5449 51.5465 37.3116 51.5732 37.3189C51.7498 37.3729 51.9352 37.2722 51.9885 37.0956C52.0412 36.9189 51.9412 36.7335 51.7652 36.6809C51.6498 36.6462 48.9077 35.8495 45.5235 36.9062C45.3475 36.9615 45.2495 37.1482 45.3049 37.3242C45.3482 37.4662 45.4802 37.5576 45.6222 37.5576V37.5576Z" fill="#FEE7B8"/>
<path d="M46.6836 40.127C46.0322 40.255 43.3348 41.333 40.0013 41.333C36.6678 41.333 33.9703 40.255 33.319 40.127C32.6676 39.9996 32.5909 40.8423 32.9623 42.0877C33.3343 43.3331 35.3344 45.9999 40.0013 45.9999C44.6682 45.9999 46.6683 43.3331 47.0403 42.0877C47.4116 40.8423 47.335 39.9996 46.6836 40.127Z" fill="#292F33"/>
<path d="M33.3343 40.6663C33.3343 40.6663 36.6678 41.9997 40.0013 41.9997C43.3348 41.9997 46.6683 40.6663 46.6683 40.6663C46.6683 40.6663 46.3349 42.6664 45.6682 42.6664C45.0015 42.6664 44.6682 41.9997 44.6682 41.9997C44.6682 41.9997 42.0014 43.3331 40.0013 43.3331C38.0012 43.3331 35.3344 41.9997 35.3344 41.9997C35.3344 41.9997 35.0011 42.6664 34.3344 42.6664C33.6677 42.6664 33.3343 40.6663 33.3343 40.6663Z" fill="#F5F8FA"/>
<path d="M46.9456 35.8147C46.9049 35.754 45.9356 34.3326 44.0015 34.3326C42.068 34.3326 41.098 35.754 41.0573 35.8147C40.9673 35.9494 40.988 36.128 41.1047 36.24C41.2207 36.3514 41.402 36.3634 41.5334 36.268C41.5414 36.2614 42.3747 35.666 44.0015 35.666C45.6189 35.666 46.4509 36.2534 46.4696 36.2667C46.5289 36.3107 46.5989 36.3327 46.6683 36.3327C46.7509 36.3327 46.8336 36.302 46.8976 36.2414C47.0156 36.13 47.0356 35.9494 46.9456 35.8147V35.8147ZM38.9452 35.8147C38.9046 35.754 37.9352 34.3326 36.0011 34.3326C34.0677 34.3326 33.0976 35.754 33.057 35.8147C32.9676 35.9494 32.9876 36.128 33.1043 36.24C33.221 36.3514 33.4023 36.3634 33.5323 36.268C33.541 36.2614 34.3737 35.666 36.0011 35.666C37.6185 35.666 38.4505 36.2534 38.4692 36.2667C38.5285 36.3107 38.5986 36.3327 38.6679 36.3327C38.7506 36.3327 38.8332 36.302 38.8972 36.2414C39.0152 36.13 39.0352 35.9494 38.9452 35.8147V35.8147ZM48.669 34.666C48.4657 34.666 48.2663 34.574 48.135 34.3993C46.3743 32.0518 44.0941 31.9998 43.9975 31.9992C43.6308 31.9952 43.3348 31.6952 43.3368 31.3291C43.3388 30.9618 43.6348 30.6658 44.0015 30.6658C44.1241 30.6658 47.0263 30.6991 49.2017 33.5992C49.4231 33.8939 49.3631 34.3119 49.0684 34.5326C48.9484 34.6226 48.8084 34.666 48.669 34.666V34.666ZM31.3335 34.666C31.1949 34.666 31.0542 34.6226 30.9342 34.5326C30.6395 34.3119 30.5802 33.8939 30.8008 33.5992C32.9756 30.6991 35.8784 30.6658 36.0011 30.6658C36.3691 30.6658 36.6678 30.9645 36.6678 31.3325C36.6678 31.6998 36.3711 31.9978 36.0038 31.9992C35.8998 32.0005 33.6243 32.0565 31.8669 34.3993C31.7369 34.574 31.5362 34.666 31.3335 34.666Z" fill="#292F33"/>
<path d="M46.0016 36.666C49.3351 37.9994 52.0019 39.9995 52.0019 43.333C52.0019 45.9998 50.0018 45.9998 50.0018 45.9998C46.0016 45.9998 48.6684 40.6662 46.0016 36.666ZM34.001 36.666C30.6675 37.9994 28.0007 39.9995 28.0007 43.333C28.0007 45.9998 30.0008 45.9998 30.0008 45.9998C34.001 45.9998 31.3342 40.6662 34.001 36.666Z" fill="#5DADEC"/>
<defs>
<filter id="filter0_d" x="3.75" y="1.75" width="28.5" height="28.5" filterUnits="userSpaceOnUse" color-interpolation-filters="sRGB">
<feFlood flood-opacity="0" result="BackgroundImageFix"/>
<feColorMatrix in="SourceAlpha" type="matrix" values="0 0 0 0 0 0 0 0 0 0 0 0 0 0 0 0 0 0 127 0"/>
<feOffset dy="2"/>
<feGaussianBlur stdDeviation="2"/>
<feColorMatrix type="matrix" values="0 0 0 0 0 0 0 0 0 0 0 0 0 0 0 0 0 0 0.08 0"/>
<feBlend mode="normal" in2="BackgroundImageFix" result="effect1_dropShadow"/>
<feBlend mode="normal" in="SourceGraphic" in2="effect1_dropShadow" result="shape"/>
</filter>
<clipPath id="clip0">
<rect width="24" height="24" fill="white" transform="translate(6 2)"/>
</clipPath>
</defs>
</svg>
