<svg width="80" height="72" viewBox="0 0 80 72" fill="none" xmlns="http://www.w3.org/2000/svg">
<circle cx="40" cy="36" r="32" fill="white"/>
<circle cx="40" cy="36" r="31.75" stroke="black" stroke-opacity="0.14" stroke-width="0.5"/>
<path d="M27 28.5C27 28.5 27 25.5 30 25.5H51C51 25.5 54 25.5 54 28.5V42C54 42 54 45 51 45H30C30 45 27 45 27 42V28.5Z" fill="#31373D"/>
<path d="M42.75 42.75C46.8921 42.75 50.25 39.3921 50.25 35.25C50.25 31.1079 46.8921 27.75 42.75 27.75C38.6079 27.75 35.25 31.1079 35.25 35.25C35.25 39.3921 38.6079 42.75 42.75 42.75Z" fill="#CCD6DD"/>
<path d="M42.75 41.25C46.0637 41.25 48.75 38.5637 48.75 35.25C48.75 31.9363 46.0637 29.25 42.75 29.25C39.4363 29.25 36.75 31.9363 36.75 35.25C36.75 38.5637 39.4363 41.25 42.75 41.25Z" fill="#31373D"/>
<path d="M42.75 39C44.8211 39 46.5 37.3211 46.5 35.25C46.5 33.1789 44.8211 31.5 42.75 31.5C40.6789 31.5 39 33.1789 39 35.25C39 37.3211 40.6789 39 42.75 39Z" fill="#3B88C3"/>
<path d="M51.375 29.25C51.9963 29.25 52.5 28.7463 52.5 28.125C52.5 27.5037 51.9963 27 51.375 27C50.7537 27 50.25 27.5037 50.25 28.125C50.25 28.7463 50.7537 29.25 51.375 29.25Z" fill="white"/>
<path d="M39 27.75L41.25 23.25L36.75 24.75L33.75 21L32.25 24.75L27.75 24L30.75 28.5L27 31.5H31.5L30 36L34.5 33.75L39 37.5L38.25 31.5L42.75 30.75L39 27.75Z" fill="#FFAC33"/>
<path d="M34.5 31.5L32.25 33L33 30.75L30.75 30L33 28.5L30.75 26.25H33.75L34.5 24L36 26.25L38.25 25.5L36.75 27.75L39 30L36.75 30.75L37.5 33.75L34.5 31.5Z" fill="white"/>
<g clip-path="url(#clip0)">
<g filter="url(#filter0_d)">
<path fill-rule="evenodd" clip-rule="evenodd" d="M18 24C23.5228 24 28 19.5228 28 14C28 8.47715 23.5228 4 18 4C12.4772 4 8 8.47715 8 14C8 19.5228 12.4772 24 18 24Z" fill="white"/>
<path fill-rule="evenodd" clip-rule="evenodd" d="M18 24C23.5228 24 28 19.5228 28 14C28 8.47715 23.5228 4 18 4C12.4772 4 8 8.47715 8 14C8 19.5228 12.4772 24 18 24Z" stroke="black" stroke-opacity="0.05" stroke-width="0.5"/>
</g>
<path d="M26 14C26 18.4182 22.4182 22 18 22C13.5818 22 10 18.4182 10 14C10 9.58178 13.5818 6 18 6C22.4182 6 26 9.58178 26 14Z" fill="#FFCC4D"/>
<path d="M22.5831 12.9387C22.5053 12.8756 22.3938 12.8733 22.312 12.9325C22.3067 12.9365 21.7516 13.3333 20.6667 13.3333C19.5822 13.3333 19.0267 12.9365 19.0222 12.9333C18.9409 12.8725 18.8289 12.8742 18.7507 12.9373C18.6716 13.0005 18.6449 13.1089 18.6858 13.2013C18.7124 13.2613 19.3524 14.6667 20.6667 14.6667C21.9813 14.6667 22.6209 13.2613 22.6476 13.2013C22.6884 13.1093 22.6618 13.0018 22.5831 12.9387ZM16.9787 12.9325C16.9733 12.9365 16.4187 13.3333 15.3333 13.3333C14.2484 13.3333 13.6933 12.9365 13.6889 12.9333C13.6076 12.8725 13.496 12.8742 13.4173 12.9373C13.3382 13.0005 13.3116 13.1089 13.3524 13.2013C13.3791 13.2613 14.0191 14.6667 15.3333 14.6667C16.648 14.6667 17.2876 13.2613 17.3142 13.2013C17.3551 13.1093 17.3284 13.0018 17.2498 12.9387C17.1716 12.8751 17.0596 12.8733 16.9787 12.9325ZM22.8893 11.7778C22.7538 11.7778 22.6209 11.7165 22.5333 11.6C21.3813 10.064 19.4396 10.432 19.4204 10.4356C19.1773 10.4836 18.9458 10.3276 18.8973 10.0871C18.8493 9.84668 19.0053 9.61246 19.2458 9.56401C19.3484 9.54312 21.76 9.08757 23.244 11.0662C23.3916 11.2627 23.3516 11.5413 23.1551 11.6885C23.0756 11.7489 22.9822 11.7778 22.8893 11.7778V11.7778ZM13.1107 11.7778C13.0182 11.7778 12.9244 11.7489 12.8444 11.6889C12.648 11.5418 12.6084 11.2631 12.7556 11.0667C14.2396 9.08712 16.6516 9.54401 16.7538 9.56446C16.9947 9.61246 17.1507 9.84668 17.1022 10.0876C17.0542 10.3276 16.8204 10.4836 16.5804 10.4365C16.4978 10.4209 14.6089 10.0773 13.4667 11.6C13.3796 11.7165 13.2458 11.7778 13.1107 11.7778V11.7778ZM20.3351 16.4787C20.2516 16.4293 20.1431 16.4405 20.0698 16.5053C20.0653 16.5089 19.6196 16.8889 18 16.8889C16.3818 16.8889 15.9351 16.5093 15.9351 16.5093C15.8644 16.4382 15.7556 16.4249 15.6684 16.4729C15.5818 16.5222 15.5382 16.6236 15.5627 16.7205C15.5671 16.74 16.0711 18.6667 18 18.6667C19.9289 18.6667 20.4329 16.74 20.4378 16.7205C20.4613 16.6258 20.4182 16.5289 20.3351 16.4787V16.4787Z" fill="#664500"/>
</g>
<defs>
<filter id="filter0_d" x="3.75" y="1.75" width="28.5" height="28.5" filterUnits="userSpaceOnUse" color-interpolation-filters="sRGB">
<feFlood flood-opacity="0" result="BackgroundImageFix"/>
<feColorMatrix in="SourceAlpha" type="matrix" values="0 0 0 0 0 0 0 0 0 0 0 0 0 0 0 0 0 0 127 0"/>
<feOffset dy="2"/>
<feGaussianBlur stdDeviation="2"/>
<feColorMatrix type="matrix" values="0 0 0 0 0 0 0 0 0 0 0 0 0 0 0 0 0 0 0.08 0"/>
<feBlend mode="normal" in2="BackgroundImageFix" result="effect1_dropShadow"/>
<feBlend mode="normal" in="SourceGraphic" in2="effect1_dropShadow" result="shape"/>
</filter>
<clipPath id="clip0">
<rect width="24" height="24" fill="white" transform="translate(6 2)"/>
</clipPath>
</defs>
</svg>
