<svg width="80" height="72" viewBox="0 0 80 72" fill="none" xmlns="http://www.w3.org/2000/svg">
<circle cx="40" cy="36" r="32" fill="white"/>
<circle cx="40" cy="36" r="31.75" stroke="black" stroke-opacity="0.14" stroke-width="0.5"/>
<path d="M52 45.3333C52 46.806 50.806 48 49.3333 48H30.6667C29.194 48 28 46.806 28 45.3333V26.6667C28 25.194 29.194 24 30.6667 24H49.3333C50.806 24 52 25.194 52 26.6667V45.3333Z" fill="#88C9F9"/>
<path d="M40.894 47.6367C40.402 48.1207 39.598 48.1207 39.1067 47.6367L34.6847 43.284C34.1933 42.8 34.0633 41.9293 34.3953 41.348L39.3953 29.05C39.728 28.4693 40.272 28.4693 40.604 29.05L45.604 41.348C45.936 41.9287 45.806 42.8 45.3147 43.2833L40.894 47.6367Z" fill="#DD2E44"/>
<path d="M40 33.7787C40.6327 33.7787 41.336 33.144 41.9327 32.318L40.604 29.05C40.2713 28.4693 39.7273 28.4693 39.3953 29.05L38.0667 32.318C38.6647 33.144 39.3673 33.7787 40 33.7787Z" fill="#A0041E"/>
<path d="M43.3334 27.852C43.3334 29.1613 41.4727 32.5933 40 32.5933C38.5274 32.5933 36.6667 29.1613 36.6667 27.852C36.6667 26.6633 38.5274 26 40 26C41.4727 26 43.3334 26.6633 43.3334 27.852V27.852Z" fill="#DD2E44"/>
<path d="M28 26.6667V28.1693C29.3827 30.016 32.5193 33.3367 33.3333 33.3367C34.806 33.3367 40.6667 26.1393 40.6667 24.6667C40.6667 24 40 24 39.3333 24H30.6667C29.194 24 28 25.194 28 26.6667Z" fill="#4CA0D3"/>
<path d="M39.3333 24.6667C39.3333 26.1393 45.194 33.3367 46.6666 33.3367C47.4806 33.3367 50.6173 30.016 52 28.1693V26.6667C52 25.194 50.806 24 49.3333 24H40.6666C40 24 39.3333 24 39.3333 24.6667Z" fill="#4CA0D3"/>
<path d="M30.6667 24C30.4887 24 30.316 24.0193 30.148 24.0527C30.9367 25.1573 35.0413 26 40 26C44.9587 26 49.0633 25.1573 49.852 24.0527C49.684 24.0193 49.5113 24 49.3333 24H30.6667Z" fill="#226699"/>
<g clip-path="url(#clip0)">
<g filter="url(#filter0_d)">
<path fill-rule="evenodd" clip-rule="evenodd" d="M18 24C23.5228 24 28 19.5228 28 14C28 8.47715 23.5228 4 18 4C12.4772 4 8 8.47715 8 14C8 19.5228 12.4772 24 18 24Z" fill="white"/>
<path fill-rule="evenodd" clip-rule="evenodd" d="M18 24C23.5228 24 28 19.5228 28 14C28 8.47715 23.5228 4 18 4C12.4772 4 8 8.47715 8 14C8 19.5228 12.4772 24 18 24Z" stroke="black" stroke-opacity="0.05" stroke-width="0.5"/>
</g>
<path d="M26 14C26 18.4182 22.4182 22 18 22C13.5822 22 10 18.4182 10 14C10 9.58222 13.5822 6 18 6C22.4182 6 26 9.58222 26 14Z" fill="#FFCC4D"/>
<path d="M16.8698 13.0289C16.8431 12.9689 16.2036 11.5636 14.8889 11.5636C13.5747 11.5636 12.9347 12.9689 12.908 13.0289C12.8671 13.1209 12.8938 13.2285 12.972 13.2916C13.0507 13.3552 13.1618 13.3569 13.2431 13.2978C13.2489 13.2938 13.804 12.8969 14.8889 12.8969C15.9671 12.8969 16.5218 13.2885 16.5342 13.2974C16.5733 13.3267 16.62 13.3414 16.6667 13.3414C16.7156 13.3414 16.7649 13.3249 16.8049 13.2929C16.8845 13.2298 16.9107 13.1214 16.8698 13.0289Z" fill="#66471B"/>
<path d="M23.7778 12C23.7778 13.5955 22.4844 14.8889 20.8889 14.8889C19.2933 14.8889 18 13.5955 18 12C18 10.4044 19.2933 9.11108 20.8889 9.11108C22.4844 9.11108 23.7778 10.4044 23.7778 12Z" fill="#F5F8FA"/>
<path d="M20.8889 13.1111C21.5025 13.1111 22 12.6137 22 12C22 11.3864 21.5025 10.8889 20.8889 10.8889C20.2752 10.8889 19.7778 11.3864 19.7778 12C19.7778 12.6137 20.2752 13.1111 20.8889 13.1111Z" fill="#292F33"/>
<path d="M13.1111 15.4497C13.1111 17.2115 15.1538 19.4497 18 19.4497C20.8462 19.4497 22.8889 17.2275 22.8889 15.4497C22.8889 15.4497 18.2964 16.6746 13.1111 15.4497Z" fill="#66471B"/>
<path d="M18.2422 16.4907L17.7573 16.4885C16.328 16.4556 15.3333 16.2236 15.3333 16.2236V19.3174C15.3333 20.6507 16.2222 21.9841 18 21.9841C19.7778 21.9841 20.6666 20.6507 20.6666 19.3174V16.2419C19.8124 16.417 18.9835 16.4827 18.2422 16.4907V16.4907Z" fill="#E8596E"/>
<path d="M18 20.1525C18.1338 20.1525 18.2422 20.0441 18.2422 19.9103V16.4907L17.7573 16.4885V19.9103C17.7578 20.0441 17.8662 20.1525 18 20.1525V20.1525Z" fill="#DD2F45"/>
</g>
<defs>
<filter id="filter0_d" x="3.75" y="1.75" width="28.5" height="28.5" filterUnits="userSpaceOnUse" color-interpolation-filters="sRGB">
<feFlood flood-opacity="0" result="BackgroundImageFix"/>
<feColorMatrix in="SourceAlpha" type="matrix" values="0 0 0 0 0 0 0 0 0 0 0 0 0 0 0 0 0 0 127 0"/>
<feOffset dy="2"/>
<feGaussianBlur stdDeviation="2"/>
<feColorMatrix type="matrix" values="0 0 0 0 0 0 0 0 0 0 0 0 0 0 0 0 0 0 0.08 0"/>
<feBlend mode="normal" in2="BackgroundImageFix" result="effect1_dropShadow"/>
<feBlend mode="normal" in="SourceGraphic" in2="effect1_dropShadow" result="shape"/>
</filter>
<clipPath id="clip0">
<rect width="24" height="24" fill="white" transform="translate(6 2)"/>
</clipPath>
</defs>
</svg>
