<svg width="80" height="72" viewBox="0 0 80 72" fill="none" xmlns="http://www.w3.org/2000/svg">
<circle cx="40" cy="36" r="32" fill="#EBEDF0" fill-opacity="0.7"/>
<circle cx="40" cy="36" r="31.75" stroke="#818C99" stroke-opacity="0.5" stroke-width="0.5"/>
<path d="M52 36C52 42.6273 46.6273 48 40 48C33.3733 48 28 42.6273 28 36C28 29.3733 33.3733 24 40 24C46.6273 24 52 29.3733 52 36Z" fill="#FFCC4D"/>
<path d="M32.6673 33.9999C32.452 33.9999 32.2406 33.8959 32.112 33.7033C31.908 33.3966 31.9906 32.9826 32.2966 32.7786C32.3853 32.7199 34.4973 31.3333 37.3333 31.3333C37.7013 31.3333 38 31.6319 38 31.9999C38 32.3679 37.7013 32.6666 37.3333 32.6666C34.8966 32.6666 33.0546 33.8759 33.0366 33.8879C32.9226 33.9639 32.794 33.9999 32.6673 33.9999V33.9999ZM47.3326 33.9999C47.2066 33.9999 47.078 33.9639 46.9646 33.8886C46.946 33.8766 45.0853 32.6666 42.6666 32.6666C42.298 32.6666 42 32.3679 42 31.9999C42 31.6319 42.298 31.3333 42.6666 31.3333C45.5026 31.3333 47.6146 32.7199 47.7033 32.7786C48.01 32.9826 48.0926 33.3966 47.888 33.7033C47.76 33.8959 47.548 33.9999 47.3326 33.9999Z" fill="#664500"/>
<path d="M46 38.7273L52 36C52 35.56 51.9727 35.1273 51.9273 34.7L46 37.394V36.6666C46 35.9306 45.4027 35.3333 44.6667 35.3333H35.3333C34.5973 35.3333 34 35.9306 34 36.6666V37.394L28.0733 34.7C28.0273 35.1273 28 35.56 28 36L34 38.7273V41.758L29.0313 40.8546C29.2587 41.368 29.5253 41.8593 29.82 42.3313L34 43.0913V44C34 44.736 34.5973 45.3333 35.3333 45.3333H44.6667C45.4027 45.3333 46 44.736 46 44V43.0913L50.1807 42.3306C50.4747 41.8586 50.7413 41.3673 50.9687 40.854L46 41.758V38.7273Z" fill="#F5F8FA"/>
<g clip-path="url(#clip0)">
<g filter="url(#filter0_d)">
<path fill-rule="evenodd" clip-rule="evenodd" d="M18 24C23.5228 24 28 19.5228 28 14C28 8.47715 23.5228 4 18 4C12.4772 4 8 8.47715 8 14C8 19.5228 12.4772 24 18 24Z" fill="white"/>
<path fill-rule="evenodd" clip-rule="evenodd" d="M18 24C23.5228 24 28 19.5228 28 14C28 8.47715 23.5228 4 18 4C12.4772 4 8 8.47715 8 14C8 19.5228 12.4772 24 18 24Z" stroke="black" stroke-opacity="0.05" stroke-width="0.5"/>
</g>
<path d="M18 22C22.4183 22 26 18.4183 26 14C26 9.58172 22.4183 6 18 6C13.5817 6 10 9.58172 10 14C10 18.4183 13.5817 22 18 22Z" fill="#FFCC4D"/>
<path d="M21.3266 18.1684C21.3066 18.0888 20.8075 16.2222 18 16.2222C15.192 16.2222 14.6933 18.0888 14.6733 18.1684C14.6489 18.2648 14.6924 18.3648 14.7786 18.4146C14.8653 18.4639 14.9738 18.4493 15.0453 18.3804C15.0538 18.3719 15.9138 17.5555 18 17.5555C20.0862 17.5555 20.9466 18.3719 20.9546 18.3799C20.9973 18.4222 21.0542 18.4444 21.1111 18.4444C21.1484 18.4444 21.1862 18.4351 21.2204 18.4159C21.3075 18.3662 21.3511 18.2653 21.3266 18.1684Z" fill="#664500"/>
<path d="M15.3333 13.5554C15.947 13.5554 16.4445 12.859 16.4445 11.9999C16.4445 11.1408 15.947 10.4443 15.3333 10.4443C14.7197 10.4443 14.2222 11.1408 14.2222 11.9999C14.2222 12.859 14.7197 13.5554 15.3333 13.5554Z" fill="#664500"/>
<path d="M20.6667 13.5554C21.2803 13.5554 21.7778 12.859 21.7778 11.9999C21.7778 11.1408 21.2803 10.4443 20.6667 10.4443C20.053 10.4443 19.5555 11.1408 19.5555 11.9999C19.5555 12.859 20.053 13.5554 20.6667 13.5554Z" fill="#664500"/>
</g>
<defs>
<filter id="filter0_d" x="3.75" y="1.75" width="28.5" height="28.5" filterUnits="userSpaceOnUse" color-interpolation-filters="sRGB">
<feFlood flood-opacity="0" result="BackgroundImageFix"/>
<feColorMatrix in="SourceAlpha" type="matrix" values="0 0 0 0 0 0 0 0 0 0 0 0 0 0 0 0 0 0 127 0"/>
<feOffset dy="2"/>
<feGaussianBlur stdDeviation="2"/>
<feColorMatrix type="matrix" values="0 0 0 0 0 0 0 0 0 0 0 0 0 0 0 0 0 0 0.08 0"/>
<feBlend mode="normal" in2="BackgroundImageFix" result="effect1_dropShadow"/>
<feBlend mode="normal" in="SourceGraphic" in2="effect1_dropShadow" result="shape"/>
</filter>
<clipPath id="clip0">
<rect width="24" height="24" fill="white" transform="translate(6 2)"/>
</clipPath>
</defs>
</svg>
