<svg width="80" height="72" viewBox="0 0 80 72" fill="none" xmlns="http://www.w3.org/2000/svg">
<circle cx="40" cy="36" r="32" fill="white"/>
<circle cx="40" cy="36" r="31.75" stroke="black" stroke-opacity="0.14" stroke-width="0.5"/>
<path d="M40.0001 24C32.2681 24 26 29.3729 26 35.9996C26 36.8287 26.098 37.6384 26.2854 38.4201C27.6691 40.8009 28.6266 39.2982 33 37.1111C37.4544 34.8835 33 40.2222 31.4445 43.3333C30.9661 44.29 31.2251 45.0997 31.88 45.7631C34.1714 47.1662 36.9698 48 40.0001 48C47.732 48 54.0001 42.6279 54.0001 35.9996C54.0001 29.3729 47.732 24 40.0001 24V24ZM42.216 43.0144C41.9087 44.0613 40.3026 44.5109 38.6281 44.0185C36.9535 43.527 35.8452 42.281 36.1524 41.2333C36.4596 40.1864 38.0657 39.7369 39.7403 40.23C41.4148 40.7207 42.5232 41.9667 42.216 43.0144V43.0144Z" fill="#D99E82"/>
<path d="M33.7778 32.4443C35.0665 32.4443 36.1111 31.3996 36.1111 30.1109C36.1111 28.8223 35.0665 27.7776 33.7778 27.7776C32.4891 27.7776 31.4445 28.8223 31.4445 30.1109C31.4445 31.3996 32.4891 32.4443 33.7778 32.4443Z" fill="#5C913B"/>
<path d="M41.5556 30.8889C42.8443 30.8889 43.889 29.8442 43.889 28.5555C43.889 27.2668 42.8443 26.2222 41.5556 26.2222C40.267 26.2222 39.2223 27.2668 39.2223 28.5555C39.2223 29.8442 40.267 30.8889 41.5556 30.8889Z" fill="#226699"/>
<path d="M48.5557 35.5554C49.8443 35.5554 50.889 34.5107 50.889 33.222C50.889 31.9333 49.8443 30.8887 48.5557 30.8887C47.267 30.8887 46.2223 31.9333 46.2223 33.222C46.2223 34.5107 47.267 35.5554 48.5557 35.5554Z" fill="#DD2E44"/>
<path d="M47.7779 42.5554C49.0665 42.5554 50.1112 41.5107 50.1112 40.222C50.1112 38.9333 49.0665 37.8887 47.7779 37.8887C46.4892 37.8887 45.4445 38.9333 45.4445 40.222C45.4445 41.5107 46.4892 42.5554 47.7779 42.5554Z" fill="#FFCC4D"/>
<g clip-path="url(#clip0)">
<g filter="url(#filter0_d)">
<path fill-rule="evenodd" clip-rule="evenodd" d="M18 24C23.5228 24 28 19.5228 28 14C28 8.47715 23.5228 4 18 4C12.4772 4 8 8.47715 8 14C8 19.5228 12.4772 24 18 24Z" fill="white"/>
<path fill-rule="evenodd" clip-rule="evenodd" d="M18 24C23.5228 24 28 19.5228 28 14C28 8.47715 23.5228 4 18 4C12.4772 4 8 8.47715 8 14C8 19.5228 12.4772 24 18 24Z" stroke="black" stroke-opacity="0.05" stroke-width="0.5"/>
</g>
<path d="M26 14C26 18.4182 22.4182 22 18 22C13.5818 22 10 18.4182 10 14C10 9.58178 13.5818 6 18 6C22.4182 6 26 9.58178 26 14Z" fill="#FFCC4D"/>
<path d="M22.5831 12.9387C22.5053 12.8756 22.3938 12.8733 22.312 12.9325C22.3067 12.9365 21.7516 13.3333 20.6667 13.3333C19.5822 13.3333 19.0267 12.9365 19.0222 12.9333C18.9409 12.8725 18.8289 12.8742 18.7507 12.9373C18.6716 13.0005 18.6449 13.1089 18.6858 13.2013C18.7124 13.2613 19.3524 14.6667 20.6667 14.6667C21.9813 14.6667 22.6209 13.2613 22.6476 13.2013C22.6884 13.1093 22.6618 13.0018 22.5831 12.9387ZM16.9787 12.9325C16.9733 12.9365 16.4187 13.3333 15.3333 13.3333C14.2484 13.3333 13.6933 12.9365 13.6889 12.9333C13.6076 12.8725 13.496 12.8742 13.4173 12.9373C13.3382 13.0005 13.3116 13.1089 13.3524 13.2013C13.3791 13.2613 14.0191 14.6667 15.3333 14.6667C16.648 14.6667 17.2876 13.2613 17.3142 13.2013C17.3551 13.1093 17.3284 13.0018 17.2498 12.9387C17.1716 12.8751 17.0596 12.8733 16.9787 12.9325ZM22.8893 11.7778C22.7538 11.7778 22.6209 11.7165 22.5333 11.6C21.3813 10.064 19.4396 10.432 19.4204 10.4356C19.1773 10.4836 18.9458 10.3276 18.8973 10.0871C18.8493 9.84668 19.0053 9.61246 19.2458 9.56401C19.3484 9.54312 21.76 9.08757 23.244 11.0662C23.3916 11.2627 23.3516 11.5413 23.1551 11.6885C23.0756 11.7489 22.9822 11.7778 22.8893 11.7778V11.7778ZM13.1107 11.7778C13.0182 11.7778 12.9244 11.7489 12.8444 11.6889C12.648 11.5418 12.6084 11.2631 12.7556 11.0667C14.2396 9.08712 16.6516 9.54401 16.7538 9.56446C16.9947 9.61246 17.1507 9.84668 17.1022 10.0876C17.0542 10.3276 16.8204 10.4836 16.5804 10.4365C16.4978 10.4209 14.6089 10.0773 13.4667 11.6C13.3796 11.7165 13.2458 11.7778 13.1107 11.7778V11.7778ZM20.3351 16.4787C20.2516 16.4293 20.1431 16.4405 20.0698 16.5053C20.0653 16.5089 19.6196 16.8889 18 16.8889C16.3818 16.8889 15.9351 16.5093 15.9351 16.5093C15.8644 16.4382 15.7556 16.4249 15.6684 16.4729C15.5818 16.5222 15.5382 16.6236 15.5627 16.7205C15.5671 16.74 16.0711 18.6667 18 18.6667C19.9289 18.6667 20.4329 16.74 20.4378 16.7205C20.4613 16.6258 20.4182 16.5289 20.3351 16.4787V16.4787Z" fill="#664500"/>
</g>
<defs>
<filter id="filter0_d" x="3.75" y="1.75" width="28.5" height="28.5" filterUnits="userSpaceOnUse" color-interpolation-filters="sRGB">
<feFlood flood-opacity="0" result="BackgroundImageFix"/>
<feColorMatrix in="SourceAlpha" type="matrix" values="0 0 0 0 0 0 0 0 0 0 0 0 0 0 0 0 0 0 127 0"/>
<feOffset dy="2"/>
<feGaussianBlur stdDeviation="2"/>
<feColorMatrix type="matrix" values="0 0 0 0 0 0 0 0 0 0 0 0 0 0 0 0 0 0 0.08 0"/>
<feBlend mode="normal" in2="BackgroundImageFix" result="effect1_dropShadow"/>
<feBlend mode="normal" in="SourceGraphic" in2="effect1_dropShadow" result="shape"/>
</filter>
<clipPath id="clip0">
<rect width="24" height="24" fill="white" transform="translate(6 2)"/>
</clipPath>
</defs>
</svg>
