<svg width="80" height="72" viewBox="0 0 80 72" fill="none" xmlns="http://www.w3.org/2000/svg">
<circle cx="40" cy="36" r="32" fill="white"/>
<circle cx="40" cy="36" r="31.75" stroke="black" stroke-opacity="0.14" stroke-width="0.5"/>
<path d="M40.0311 24C34.4941 24 30.0052 28.4889 30.0052 34.0259V40.0414H32.0104V34.0259C32.0104 29.3471 35.5321 25.8795 40.0311 25.8795C44.5294 25.8795 48.0518 29.3471 48.0518 34.0259V40.7098L50.057 40.0414V34.0259C50.057 28.4889 45.5681 24 40.0311 24Z" fill="#66757F"/>
<path d="M32.0104 42.0467C32.0104 42.7846 31.4115 43.3834 30.6736 43.3834H29.3368C28.5989 43.3834 28 42.7846 28 42.0467V36.0311C28 35.2932 28.5989 34.6943 29.3368 34.6943H30.6736C31.4115 34.6943 32.0104 35.2932 32.0104 36.0311V42.0467ZM52.0622 42.0467C52.0622 42.7846 51.4633 43.3834 50.7254 43.3834H49.3886C48.6507 43.3834 48.0518 42.7846 48.0518 42.0467V36.0311C48.0518 35.2932 48.6507 34.6943 49.3886 34.6943H50.7254C51.4633 34.6943 52.0622 35.2932 52.0622 36.0311V42.0467Z" fill="#31373D"/>
<path d="M40.8211 30.6946L36.5675 31.5722C36.2667 31.6344 36.0207 31.9358 36.0207 32.2433V43.0612C35.5943 42.9095 35.1244 42.8206 34.6258 42.8206C32.7643 42.8206 31.2557 43.9937 31.2557 45.4421C31.2557 46.8891 32.765 48 34.6258 48C36.4545 47.9987 37.9738 46.7254 38.0259 45.3886V34.955L40.8358 34.3721C41.1359 34.31 41.3679 34.0079 41.3679 33.7011V31.1398C41.3679 30.8337 41.1219 30.6325 40.8211 30.6946V30.6946ZM46.1683 32.8007L43.2962 33.3789C42.9954 33.4411 42.7046 33.7425 42.7046 34.0493V41.6723C42.7046 41.5707 42.1178 41.5119 41.7689 41.5119C40.4161 41.5119 39.3406 42.3648 39.3406 43.4182C39.3406 44.4702 40.4488 45.3238 41.8023 45.3238C43.1558 45.3238 44.26 44.4702 44.26 43.4182L44.2506 35.8747L46.1683 35.475C46.469 35.4128 46.715 35.1114 46.715 34.8046V33.2472C46.715 32.9404 46.469 32.7392 46.1683 32.8007V32.8007Z" fill="#55ACEE"/>
<g clip-path="url(#clip0)">
<g filter="url(#filter0_d)">
<path fill-rule="evenodd" clip-rule="evenodd" d="M18 24C23.5228 24 28 19.5228 28 14C28 8.47715 23.5228 4 18 4C12.4772 4 8 8.47715 8 14C8 19.5228 12.4772 24 18 24Z" fill="white"/>
<path fill-rule="evenodd" clip-rule="evenodd" d="M18 24C23.5228 24 28 19.5228 28 14C28 8.47715 23.5228 4 18 4C12.4772 4 8 8.47715 8 14C8 19.5228 12.4772 24 18 24Z" stroke="black" stroke-opacity="0.05" stroke-width="0.5"/>
</g>
<path d="M26 14C26 18.4182 22.4182 22 18 22C13.5822 22 10 18.4182 10 14C10 9.58222 13.5822 6 18 6C22.4182 6 26 9.58222 26 14Z" fill="#FFCC4D"/>
<path d="M15.1111 14C15.7248 14 16.2222 12.9056 16.2222 11.5555C16.2222 10.2055 15.7248 9.11108 15.1111 9.11108C14.4975 9.11108 14 10.2055 14 11.5555C14 12.9056 14.4975 14 15.1111 14Z" fill="#664500"/>
<path d="M20.8889 14C21.5025 14 22 12.9056 22 11.5555C22 10.2055 21.5025 9.11108 20.8889 9.11108C20.2752 9.11108 19.7778 10.2055 19.7778 11.5555C19.7778 12.9056 20.2752 14 20.8889 14Z" fill="#664500"/>
<path d="M18 15.7778C16.3898 15.7778 15.3213 15.5903 14 15.3334C13.6982 15.2752 13.1111 15.3334 13.1111 16.2223C13.1111 18.0001 15.1533 20.2223 18 20.2223C20.8462 20.2223 22.8889 18.0001 22.8889 16.2223C22.8889 15.3334 22.3018 15.2747 22 15.3334C20.6786 15.5903 19.6102 15.7778 18 15.7778Z" fill="#664500"/>
<path d="M14 16.2222C14 16.2222 15.3333 16.6666 18 16.6666C20.6667 16.6666 22 16.2222 22 16.2222C22 16.2222 21.1111 17.9999 18 17.9999C14.8889 17.9999 14 16.2222 14 16.2222Z" fill="white"/>
</g>
<defs>
<filter id="filter0_d" x="3.75" y="1.75" width="28.5" height="28.5" filterUnits="userSpaceOnUse" color-interpolation-filters="sRGB">
<feFlood flood-opacity="0" result="BackgroundImageFix"/>
<feColorMatrix in="SourceAlpha" type="matrix" values="0 0 0 0 0 0 0 0 0 0 0 0 0 0 0 0 0 0 127 0"/>
<feOffset dy="2"/>
<feGaussianBlur stdDeviation="2"/>
<feColorMatrix type="matrix" values="0 0 0 0 0 0 0 0 0 0 0 0 0 0 0 0 0 0 0.08 0"/>
<feBlend mode="normal" in2="BackgroundImageFix" result="effect1_dropShadow"/>
<feBlend mode="normal" in="SourceGraphic" in2="effect1_dropShadow" result="shape"/>
</filter>
<clipPath id="clip0">
<rect width="24" height="24" fill="white" transform="translate(6 2)"/>
</clipPath>
</defs>
</svg>
