<svg width="80" height="72" viewBox="0 0 80 72" fill="none" xmlns="http://www.w3.org/2000/svg">
<circle cx="40" cy="36" r="32" fill="white"/>
<circle cx="40" cy="36" r="31.75" stroke="black" stroke-opacity="0.14" stroke-width="0.5"/>
<g clip-path="url(#clip0)">
<g filter="url(#filter0_d)">
<path fill-rule="evenodd" clip-rule="evenodd" d="M18 24C23.5228 24 28 19.5228 28 14C28 8.47715 23.5228 4 18 4C12.4772 4 8 8.47715 8 14C8 19.5228 12.4772 24 18 24Z" fill="white"/>
<path fill-rule="evenodd" clip-rule="evenodd" d="M18 24C23.5228 24 28 19.5228 28 14C28 8.47715 23.5228 4 18 4C12.4772 4 8 8.47715 8 14C8 19.5228 12.4772 24 18 24Z" stroke="black" stroke-opacity="0.05" stroke-width="0.5"/>
</g>
<path d="M26 14C26 18.4182 22.4182 22 18 22C13.5822 22 10 18.4182 10 14C10 9.58222 13.5822 6 18 6C22.4182 6 26 9.58222 26 14Z" fill="#FFCC4D"/>
<path d="M15.1111 14C15.7248 14 16.2222 12.9056 16.2222 11.5555C16.2222 10.2055 15.7248 9.11108 15.1111 9.11108C14.4975 9.11108 14 10.2055 14 11.5555C14 12.9056 14.4975 14 15.1111 14Z" fill="#664500"/>
<path d="M20.8889 14C21.5025 14 22 12.9056 22 11.5555C22 10.2055 21.5025 9.11108 20.8889 9.11108C20.2752 9.11108 19.7778 10.2055 19.7778 11.5555C19.7778 12.9056 20.2752 14 20.8889 14Z" fill="#664500"/>
<path d="M18 15.7778C16.3898 15.7778 15.3213 15.5903 14 15.3334C13.6982 15.2752 13.1111 15.3334 13.1111 16.2223C13.1111 18.0001 15.1533 20.2223 18 20.2223C20.8462 20.2223 22.8889 18.0001 22.8889 16.2223C22.8889 15.3334 22.3018 15.2747 22 15.3334C20.6787 15.5903 19.6102 15.7778 18 15.7778Z" fill="#664500"/>
<path d="M14 16.2222C14 16.2222 15.3333 16.6666 18 16.6666C20.6667 16.6666 22 16.2222 22 16.2222C22 16.2222 21.1111 17.9999 18 17.9999C14.8889 17.9999 14 16.2222 14 16.2222Z" fill="white"/>
</g>
<path d="M35.0714 42.7142H53.6427C53.6427 42.7142 56.4284 42.7142 56.4284 38.9999C56.4284 37.1428 56.4284 33.4285 55.4998 32.5C54.5712 31.5714 48.0713 26 45.2856 26H39.7142C36.9285 26 30.4285 32.5 30.4285 32.5L26.7143 33.4285C26.7143 33.4285 23.9286 34.3571 23.9286 36.2142V38.9999C23.9286 38.9999 23 39.3138 23 40.8171C23 42.7142 24.8571 42.7142 24.8571 42.7142H35.0714Z" fill="#DD2E44"/>
<path d="M41.5713 27.8567H39.7142C37.857 27.8567 32.2856 33.4281 32.2856 33.4281C32.2856 33.4281 36.9257 33.1839 41.5713 32.9462V27.8567ZM50.857 30.6424C49.9284 29.7138 46.2141 27.8567 44.357 27.8567H43.4284V32.8514C47.1529 32.662 50.4688 32.4995 50.857 32.4995C51.7855 32.4995 51.7855 31.571 50.857 30.6424V30.6424Z" fill="#BBDDF5"/>
<path d="M32.2856 45.5001C34.337 45.5001 35.9999 43.8371 35.9999 41.7858C35.9999 39.7345 34.337 38.0715 32.2856 38.0715C30.2343 38.0715 28.5714 39.7345 28.5714 41.7858C28.5714 43.8371 30.2343 45.5001 32.2856 45.5001Z" fill="#292F33"/>
<path d="M32.2857 43.6422C33.3113 43.6422 34.1428 42.8108 34.1428 41.7851C34.1428 40.7594 33.3113 39.928 32.2857 39.928C31.26 39.928 30.4285 40.7594 30.4285 41.7851C30.4285 42.8108 31.26 43.6422 32.2857 43.6422Z" fill="#CCD6DD"/>
<path d="M48.0713 45.5001C50.1227 45.5001 51.7856 43.8371 51.7856 41.7858C51.7856 39.7345 50.1227 38.0715 48.0713 38.0715C46.02 38.0715 44.3571 39.7345 44.3571 41.7858C44.3571 43.8371 46.02 45.5001 48.0713 45.5001Z" fill="#292F33"/>
<path d="M48.0713 43.6422C49.097 43.6422 49.9284 42.8108 49.9284 41.7851C49.9284 40.7594 49.097 39.928 48.0713 39.928C47.0456 39.928 46.2142 40.7594 46.2142 41.7851C46.2142 42.8108 47.0456 43.6422 48.0713 43.6422Z" fill="#CCD6DD"/>
<defs>
<filter id="filter0_d" x="3.75" y="1.75" width="28.5" height="28.5" filterUnits="userSpaceOnUse" color-interpolation-filters="sRGB">
<feFlood flood-opacity="0" result="BackgroundImageFix"/>
<feColorMatrix in="SourceAlpha" type="matrix" values="0 0 0 0 0 0 0 0 0 0 0 0 0 0 0 0 0 0 127 0"/>
<feOffset dy="2"/>
<feGaussianBlur stdDeviation="2"/>
<feColorMatrix type="matrix" values="0 0 0 0 0 0 0 0 0 0 0 0 0 0 0 0 0 0 0.08 0"/>
<feBlend mode="normal" in2="BackgroundImageFix" result="effect1_dropShadow"/>
<feBlend mode="normal" in="SourceGraphic" in2="effect1_dropShadow" result="shape"/>
</filter>
<clipPath id="clip0">
<rect width="24" height="24" fill="white" transform="translate(6 2)"/>
</clipPath>
</defs>
</svg>
