<svg width="80" height="72" viewBox="0 0 80 72" fill="none" xmlns="http://www.w3.org/2000/svg">
<circle cx="40" cy="36" r="32" fill="#EBEDF0" fill-opacity="0.7"/>
<circle cx="40" cy="36" r="31.75" stroke="#818C99" stroke-opacity="0.5" stroke-width="0.5"/>
<path d="M38.8824 27.9412H41.7059V39.9412H38.8824V27.9412Z" fill="#99AAB5"/>
<path d="M34.6471 38.8823C34.6471 39.4668 34.1727 39.9411 33.5882 39.9411H31.4706C30.8861 39.9411 30.4118 39.4668 30.4118 38.8823C30.4118 38.2978 30.8861 37.8235 31.4706 37.8235H33.5882C34.1727 37.8235 34.6471 38.2978 34.6471 38.8823Z" fill="#DA2F47"/>
<path d="M51.5882 44.8824C51.5882 45.6617 50.9558 46.2942 50.1765 46.2942H30.4118C29.6325 46.2942 29 45.6617 29 44.8824V40.6471C29 39.8678 29.6325 39.2354 30.4118 39.2354H50.1765C50.9558 39.2354 51.5882 39.8678 51.5882 40.6471V44.8824Z" fill="#31373D"/>
<path d="M34.6471 45.9411C34.6471 46.5256 34.1734 47 33.5882 47H31.4706C30.8854 47 30.4118 46.5256 30.4118 45.9411C30.4118 45.3567 30.8854 44.8823 31.4706 44.8823H33.5882C34.1734 44.8823 34.6471 45.3567 34.6471 45.9411ZM50.1765 45.9411C50.1765 46.5256 49.7021 47 49.1177 47H47C46.4155 47 45.9412 46.5256 45.9412 45.9411C45.9412 45.3567 46.4155 44.8823 47 44.8823H49.1177C49.7021 44.8823 50.1765 45.3567 50.1765 45.9411Z" fill="#31373D"/>
<path d="M40.2941 30.0588C42.2434 30.0588 43.8235 28.4787 43.8235 26.5294C43.8235 24.5802 42.2434 23 40.2941 23C38.3449 23 36.7647 24.5802 36.7647 26.5294C36.7647 28.4787 38.3449 30.0588 40.2941 30.0588Z" fill="#DA2F47"/>
<path d="M45.2353 39.9412C45.2353 40.7205 44.6028 41.3529 43.8235 41.3529H36.7647C35.9854 41.3529 35.3529 40.7205 35.3529 39.9412V39.2353C35.3529 38.456 38.1031 35 38.8823 35H41.7059C42.4852 35 45.2353 38.456 45.2353 39.2353V39.9412Z" fill="#31373D"/>
<path d="M50.8823 41.3529C50.8823 41.7432 50.5668 42.0587 50.1765 42.0587H30.4118C30.0221 42.0587 29.7059 41.7432 29.7059 41.3529C29.7059 40.9625 30.0221 40.647 30.4118 40.647H50.1765C50.5668 40.647 50.8823 40.9625 50.8823 41.3529Z" fill="#66757F"/>
<g clip-path="url(#clip0)">
<g filter="url(#filter0_d)">
<path fill-rule="evenodd" clip-rule="evenodd" d="M18 24C23.5228 24 28 19.5228 28 14C28 8.47715 23.5228 4 18 4C12.4772 4 8 8.47715 8 14C8 19.5228 12.4772 24 18 24Z" fill="white"/>
<path fill-rule="evenodd" clip-rule="evenodd" d="M18 24C23.5228 24 28 19.5228 28 14C28 8.47715 23.5228 4 18 4C12.4772 4 8 8.47715 8 14C8 19.5228 12.4772 24 18 24Z" stroke="black" stroke-opacity="0.05" stroke-width="0.5"/>
</g>
<path d="M26 14C26 18.4182 22.4182 22 18 22C13.5822 22 10 18.4182 10 14C10 9.58222 13.5822 6 18 6C22.4182 6 26 9.58222 26 14Z" fill="#FFCC4D"/>
<path d="M16.8698 13.0288C16.8431 12.9688 16.2036 11.5635 14.8889 11.5635C13.5747 11.5635 12.9347 12.9688 12.908 13.0288C12.8671 13.1208 12.8938 13.2284 12.972 13.2915C13.0507 13.355 13.1618 13.3568 13.2431 13.2977C13.2489 13.2937 13.804 12.8968 14.8889 12.8968C15.9671 12.8968 16.5218 13.2884 16.5342 13.2973C16.5733 13.3266 16.62 13.3413 16.6667 13.3413C16.7156 13.3413 16.7649 13.3248 16.8049 13.2928C16.8845 13.2297 16.9107 13.1213 16.8698 13.0288Z" fill="#66471B"/>
<path d="M23.7778 12C23.7778 13.5955 22.4844 14.8889 20.8889 14.8889C19.2933 14.8889 18 13.5955 18 12C18 10.4044 19.2933 9.11108 20.8889 9.11108C22.4844 9.11108 23.7778 10.4044 23.7778 12Z" fill="#F5F8FA"/>
<path d="M20.8889 13.1111C21.5025 13.1111 22 12.6137 22 12C22 11.3864 21.5025 10.8889 20.8889 10.8889C20.2752 10.8889 19.7778 11.3864 19.7778 12C19.7778 12.6137 20.2752 13.1111 20.8889 13.1111Z" fill="#292F33"/>
<path d="M13.1111 15.4497C13.1111 17.2115 15.1538 19.4497 18 19.4497C20.8462 19.4497 22.8889 17.2275 22.8889 15.4497C22.8889 15.4497 18.2964 16.6746 13.1111 15.4497Z" fill="#66471B"/>
<path d="M18.2422 16.4907L17.7573 16.4885C16.328 16.4556 15.3333 16.2236 15.3333 16.2236V19.3174C15.3333 20.6507 16.2222 21.9841 18 21.9841C19.7778 21.9841 20.6667 20.6507 20.6667 19.3174V16.2419C19.8125 16.417 18.9836 16.4827 18.2422 16.4907V16.4907Z" fill="#E8596E"/>
<path d="M18 20.1525C18.1338 20.1525 18.2422 20.0441 18.2422 19.9103V16.4907L17.7573 16.4885V19.9103C17.7578 20.0441 17.8662 20.1525 18 20.1525V20.1525Z" fill="#DD2F45"/>
</g>
<defs>
<filter id="filter0_d" x="3.75" y="1.75" width="28.5" height="28.5" filterUnits="userSpaceOnUse" color-interpolation-filters="sRGB">
<feFlood flood-opacity="0" result="BackgroundImageFix"/>
<feColorMatrix in="SourceAlpha" type="matrix" values="0 0 0 0 0 0 0 0 0 0 0 0 0 0 0 0 0 0 127 0"/>
<feOffset dy="2"/>
<feGaussianBlur stdDeviation="2"/>
<feColorMatrix type="matrix" values="0 0 0 0 0 0 0 0 0 0 0 0 0 0 0 0 0 0 0.08 0"/>
<feBlend mode="normal" in2="BackgroundImageFix" result="effect1_dropShadow"/>
<feBlend mode="normal" in="SourceGraphic" in2="effect1_dropShadow" result="shape"/>
</filter>
<clipPath id="clip0">
<rect width="24" height="24" fill="white" transform="translate(6 2)"/>
</clipPath>
</defs>
</svg>
